<svg xmlns="http://www.w3.org/2000/svg" xmlns:svg="http://www.w3.org/2000/svg" xmlns:xlink="http://www.w3.org/1999/xlink" id="svg2963" width="140" height="140" version="1.1"><metadata id="metadata161"/><defs id="defs3"><linearGradient id="linearGradient2394"><stop id="stop2396" offset="0" stop-color="#5c3566" stop-opacity="1"/><stop id="stop2398" offset="1" stop-color="#45284d" stop-opacity="1"/></linearGradient><linearGradient id="linearGradient2384"><stop id="stop2386" offset="0" stop-color="#5c3566" stop-opacity="1"/><stop id="stop2388" offset="1" stop-color="#43274b" stop-opacity="1"/></linearGradient><linearGradient id="linearGradient3919"><stop id="stop3921" offset="0" stop-color="#fff" stop-opacity="1"/><stop id="stop3923" offset="1" stop-color="#fff" stop-opacity="0"/></linearGradient><linearGradient id="linearGradient3887"><stop id="stop3889" offset="0" stop-color="#edd400" stop-opacity="1"/><stop id="stop3891" offset="1" stop-color="#fce94f" stop-opacity="1"/></linearGradient><linearGradient id="linearGradient3800"><stop id="stop3802" offset="0" stop-color="#babdb6" stop-opacity="1"/><stop id="stop3804" offset=".5" stop-color="#eeeeec" stop-opacity="1"/><stop id="stop3806" offset="1" stop-color="#babdb6" stop-opacity="1"/></linearGradient><linearGradient id="linearGradient3792"><stop id="stop3794" offset="0" stop-color="#fff" stop-opacity="1"/><stop id="stop3796" offset=".5" stop-color="#fff" stop-opacity="1"/><stop id="stop3798" offset="1" stop-color="#888a85" stop-opacity="1"/></linearGradient><linearGradient id="linearGradient3786"><stop id="stop3788" offset="0" stop-color="#888a85" stop-opacity="1"/><stop id="stop3790" offset="1" stop-color="#2e3436" stop-opacity="1"/></linearGradient><linearGradient id="linearGradient3551"><stop id="stop3553" offset="0" stop-color="#fff" stop-opacity="1"/><stop id="stop3555" offset="1" stop-color="#888a85" stop-opacity="1"/></linearGradient><linearGradient id="linearGradient3539"><stop id="stop3541" offset="0" stop-color="#fff" stop-opacity="1"/><stop id="stop3543" offset="1" stop-color="#888a85" stop-opacity="1"/></linearGradient><linearGradient id="linearGradient3517"><stop id="stop3519" offset="0" stop-color="#fff" stop-opacity="1"/><stop id="stop3521" offset="1" stop-color="#eeeeec" stop-opacity="1"/></linearGradient><linearGradient id="linearGradient3470"><stop id="stop3472" offset="0" stop-color="#f5e0be" stop-opacity="1"/><stop id="stop3474" offset="1" stop-color="#8ae234" stop-opacity="1"/></linearGradient><linearGradient id="linearGradient3251"><stop id="stop3253" offset="0" stop-color="#695337" stop-opacity="1"/><stop id="stop3255" offset="1" stop-color="#695337" stop-opacity="0"/></linearGradient><linearGradient id="linearGradient3243"><stop id="stop3245" offset="0" stop-color="#000" stop-opacity="1"/><stop id="stop3247" offset="1" stop-color="#000" stop-opacity="0"/></linearGradient><linearGradient id="linearGradient3746" x1="30.5" x2="30.5" y1="18.665" y2="26" gradientUnits="userSpaceOnUse" xlink:href="#linearGradient3919"/><linearGradient id="linearGradient3893" x1="13.896" x2="12.92" y1="4.666" y2="13.139" gradientUnits="userSpaceOnUse" xlink:href="#linearGradient3887"/><linearGradient id="linearGradient3917" x1="13.896" x2="12.92" y1="4.666" y2="13.139" gradientUnits="userSpaceOnUse" xlink:href="#linearGradient3887"/><linearGradient id="linearGradient3925" x1="14" x2="14" y1="3" y2="16.361" gradientUnits="userSpaceOnUse" xlink:href="#linearGradient3919"/><linearGradient id="linearGradient3934" x1="27.617" x2="35.258" y1="15.721" y2="15.5" gradientTransform="matrix(1,0,0,-1,0,48)" gradientUnits="userSpaceOnUse" xlink:href="#linearGradient3800"/><radialGradient id="radialGradient3936" cx="31.264" cy="12.943" r="4.556" fx="31.264" fy="12.943" gradientTransform="matrix(1.3566902,0,0,0.7525334,-11.151648,1.0040626)" gradientUnits="userSpaceOnUse" xlink:href="#linearGradient3792"/><linearGradient id="linearGradient3944" x1="30.369" x2="30.513" y1="6.712" y2="24.091" gradientUnits="userSpaceOnUse" xlink:href="#linearGradient3919"/><linearGradient id="linearGradient2379" x1="2.052" x2="2.052" y1="23.776" y2="20.549" gradientTransform="matrix(0.9659258,0.258819,0.258819,-0.9659258,12.365949,46.030428)" gradientUnits="userSpaceOnUse" xlink:href="#linearGradient3517"/><linearGradient id="linearGradient2381" x1="12.5" x2="12.5" y1="16.248" y2="13.748" gradientTransform="translate(3,0)" gradientUnits="userSpaceOnUse" xlink:href="#linearGradient3551"/><linearGradient id="linearGradient2403" x1="2.052" x2="2.052" y1="23.776" y2="20.549" gradientTransform="translate(13,0)" gradientUnits="userSpaceOnUse" xlink:href="#linearGradient3517"/><linearGradient id="linearGradient2405" x1="12.813" x2="12.813" y1="16.279" y2="13.742" gradientTransform="translate(3,0)" gradientUnits="userSpaceOnUse" xlink:href="#linearGradient3539"/><radialGradient id="radialGradient2439" cx="27.233" cy="22.5" r="7" fx="27.233" fy="22.5" gradientTransform="matrix(1.4456279,0,0,1.2531601,-10.145615,-5.696102)" gradientUnits="userSpaceOnUse" xlink:href="#linearGradient3470"/><linearGradient id="linearGradient2390" x1="20.813" x2="22.719" y1="15.281" y2="24.594" gradientUnits="userSpaceOnUse" xlink:href="#linearGradient2384"/><linearGradient id="linearGradient2400" x1="13.563" x2="13.563" y1="19.844" y2="21.313" gradientUnits="userSpaceOnUse" xlink:href="#linearGradient2394"/><linearGradient id="linearGradient3275"><stop id="stop3277" offset="0" stop-color="#fff" stop-opacity="0"/><stop id="stop3283" offset=".245" stop-color="#fff" stop-opacity="1"/><stop id="stop3285" offset=".774" stop-color="#fff" stop-opacity="1"/><stop id="stop3279" offset="1" stop-color="#fff" stop-opacity="0"/></linearGradient><linearGradient id="linearGradient3199"><stop id="stop3201" offset="0" stop-color="#dac197" stop-opacity="1"/><stop id="stop3203" offset=".239" stop-color="#c1a581" stop-opacity="1"/><stop id="stop3205" offset=".276" stop-color="#dbc298" stop-opacity="1"/><stop id="stop3207" offset="1" stop-color="#a68b60" stop-opacity="1"/></linearGradient><linearGradient id="linearGradient3295"><stop id="stop3297" offset="0" stop-color="#c3a67d" stop-opacity="1"/><stop id="stop3299" offset=".239" stop-color="#a17d4f" stop-opacity="1"/><stop id="stop3301" offset=".276" stop-color="#bb9b71" stop-opacity="1"/><stop id="stop3303" offset="1" stop-color="#836945" stop-opacity="1"/></linearGradient><linearGradient id="linearGradient3681-3"><stop id="stop3683-8" offset="0" stop-color="#000" stop-opacity="1"/><stop id="stop3685-0" offset="1" stop-color="#000" stop-opacity="0"/></linearGradient><linearGradient id="linearGradient3703-9"><stop id="stop3705-0" offset="0" stop-color="#000" stop-opacity="0"/><stop id="stop3711-2" offset=".5" stop-color="#000" stop-opacity="1"/><stop id="stop3707-8" offset="1" stop-color="#000" stop-opacity="0"/></linearGradient><linearGradient id="linearGradient3250" x1="24.823" x2="24.997" y1="15.378" y2="37.277" gradientTransform="matrix(2.8953744,0,0,3.0605474,2.824395,5.458645)" gradientUnits="userSpaceOnUse" xlink:href="#linearGradient3199"/><linearGradient id="linearGradient3252" x1="15.464" x2="15.464" y1="7.976" y2="45.042" gradientTransform="matrix(2.258086,0,0,1.965339,16.53141,35.510164)" gradientUnits="userSpaceOnUse" xlink:href="#linearGradient3295"/><linearGradient id="linearGradient3278" x1="12.813" x2="12.813" y1="16.279" y2="13.742" gradientTransform="matrix(2.7229079,0,0,2.7229079,6.737138,1.796161)" gradientUnits="userSpaceOnUse" xlink:href="#linearGradient3539"/><linearGradient id="linearGradient3288" x1="2.052" x2="2.052" y1="23.776" y2="20.549" gradientTransform="matrix(2.7229079,0,0,2.7229079,33.966217,1.796159)" gradientUnits="userSpaceOnUse" xlink:href="#linearGradient3517"/><linearGradient id="linearGradient3291" x1="10.5" x2="10.5" y1="19.837" y2="21.077" gradientTransform="matrix(2.7229079,0,0,2.7229079,6.737138,1.796161)" gradientUnits="userSpaceOnUse" xlink:href="#linearGradient2384"/><radialGradient id="radialGradient3300" cx="19.219" cy="22.255" r="4.469" fx="19.219" fy="22.255" gradientTransform="matrix(3.340055,0,0,1.7938196,-5.123655,24.7735)" gradientUnits="userSpaceOnUse" xlink:href="#linearGradient3786"/><linearGradient id="linearGradient3313" x1="11.124" x2="13.168" y1="21.563" y2="21.563" gradientTransform="matrix(-3.3925333,0,0,-2.7229079,143.88742,132.49574)" gradientUnits="userSpaceOnUse" xlink:href="#linearGradient3251"/><linearGradient id="linearGradient3325" x1="10.749" x2="12.11" y1="21.5" y2="21.5" gradientTransform="matrix(3.3512712,0,0,-2.7229079,-2.059949,132.49574)" gradientUnits="userSpaceOnUse" xlink:href="#linearGradient3251"/><linearGradient id="linearGradient3328" x1="22.188" x2="22.188" y1="20" y2="24.08" gradientTransform="matrix(2.8356208,0,0,2.7229079,5.708632,1.796161)" gradientUnits="userSpaceOnUse" xlink:href="#linearGradient3251"/><radialGradient id="radialGradient3351" cx="5" cy="41.5" r="5" fx="5" fy="41.5" gradientTransform="matrix(0.5938225,0,0,1.5366531,-6.6594735,-103.93618)" gradientUnits="userSpaceOnUse" xlink:href="#linearGradient3681-3"/><linearGradient id="linearGradient3353" x1="17.554" x2="17.554" y1="46" y2="35" gradientTransform="matrix(1.7570316,0,0,1.3969574,-17.394014,-16.411698)" gradientUnits="userSpaceOnUse" xlink:href="#linearGradient3703-9"/><radialGradient id="radialGradient3355" cx="5" cy="41.5" r="5" fx="5" fy="41.5" gradientTransform="matrix(0.5938225,0,0,1.5366531,41.140892,-103.93618)" gradientUnits="userSpaceOnUse" xlink:href="#linearGradient3681-3"/><linearGradient id="linearGradient3359" x1="44.995" x2="3.005" y1="17.5" y2="17.5" gradientTransform="matrix(2.1383648,0,0,2.7229079,19.145941,23.579424)" gradientUnits="userSpaceOnUse" spreadMethod="reflect" xlink:href="#linearGradient3275"/><linearGradient id="linearGradient4137" x1="20.781" x2="20.813" y1="24.594" y2="23.531" gradientTransform="matrix(2.9509593,0,0,2.7229079,1.470151,1.796161)" gradientUnits="userSpaceOnUse" xlink:href="#linearGradient3243"/><linearGradient id="linearGradient4293" x1="14.177" x2="13.837" y1="2.159" y2="13.282" gradientUnits="userSpaceOnUse" xlink:href="#linearGradient3919"/><linearGradient id="linearGradient3777" x1="23" x2="23" y1="19" y2="44" gradientTransform="matrix(2.7229079,0,0,2.7229079,6.737138,1.796161)" gradientUnits="userSpaceOnUse" xlink:href="#linearGradient3919"/><radialGradient id="radialGradient2558" cx="23.896" cy="3.99" r="20.397" fx="23.896" fy="3.99" gradientTransform="matrix(0,1.5835631,-2.0902753,0,42.340162,-18.357312)" gradientUnits="userSpaceOnUse" xlink:href="#linearGradient3242"/><linearGradient id="linearGradient3242"><stop id="stop3244" offset="0" stop-color="#f8b17e" stop-opacity="1"/><stop id="stop3246" offset=".262" stop-color="#e35d4f" stop-opacity="1"/><stop id="stop3248" offset=".661" stop-color="#c6262e" stop-opacity="1"/><stop id="stop3250" offset="1" stop-color="#690b54" stop-opacity="1"/></linearGradient><linearGradient id="linearGradient2560" x1="18.379" x2="18.379" y1="44.98" y2="3.082" gradientTransform="matrix(0.6635067,0,0,0.6635068,18.075796,18.075797)" gradientUnits="userSpaceOnUse" xlink:href="#linearGradient2490"/><linearGradient id="linearGradient2490"><stop id="stop2492" offset="0" stop-color="#791235" stop-opacity="1"/><stop id="stop2494" offset="1" stop-color="#dd3b27" stop-opacity="1"/></linearGradient><linearGradient id="linearGradient2555" x1="63.397" x2="63.397" y1="-12.489" y2="5.468" gradientTransform="matrix(1.4293065,0,0,1.429274,-54.903442,39.017944)" gradientUnits="userSpaceOnUse" xlink:href="#linearGradient4873"/><linearGradient id="linearGradient4873"><stop id="stop4875" offset="0" stop-color="#fff" stop-opacity="1"/><stop id="stop4877" offset="1" stop-color="#fff" stop-opacity="0"/></linearGradient><linearGradient id="linearGradient2552" x1="24.481" x2="24.481" y1="5.081" y2="45.074" gradientTransform="matrix(0.6922803,0,0,0.6922803,17.385229,16.692949)" gradientUnits="userSpaceOnUse" xlink:href="#linearGradient3781"/><linearGradient id="linearGradient3781"><stop id="stop3783" offset="0" stop-color="#fff" stop-opacity="1"/><stop id="stop3785" offset="1" stop-color="#fff" stop-opacity="0"/></linearGradient><linearGradient id="linearGradient3106" x1="24.481" x2="24.481" y1="5.081" y2="45.074" gradientTransform="matrix(0.6922803,0,0,0.6922803,17.385229,16.692949)" gradientUnits="userSpaceOnUse" xlink:href="#linearGradient3781"/><linearGradient id="linearGradient2487" x1="2.445" x2="2.445" y1="18.34" y2="32.696" gradientTransform="matrix(1.1827466,0,0,1.1756122,6.758282,5.9395083)" gradientUnits="userSpaceOnUse" xlink:href="#linearGradient2264"/><linearGradient id="linearGradient2264"><stop id="stop2266" offset="0" stop-color="#d7e866" stop-opacity="1"/><stop id="stop2268" offset="1" stop-color="#8cab2a" stop-opacity="1"/></linearGradient><linearGradient id="linearGradient3056" x1="2.445" x2="2.445" y1="18.34" y2="32.696" gradientTransform="matrix(2.0039275,0,0,1.9918397,-14.368994,61.628748)" gradientUnits="userSpaceOnUse" xlink:href="#linearGradient2264"/></defs><g id="g3305" display="inline" opacity=".4" transform="matrix(2.1740943,0,0,2.1263677,18.764224,30.752571)"><rect id="rect2484" width="2.96" height="15.367" x="-3.69" y="-47.848" fill="url(#radialGradient3351)" fill-opacity="1" stroke="none" transform="scale(-1,-1)"/><rect id="rect2486" width="40.412" height="15.367" x="3.69" y="32.482" fill="url(#linearGradient3353)" fill-opacity="1" stroke="none"/><rect id="rect3444" width="2.96" height="15.367" x="44.11" y="-47.848" fill="url(#radialGradient3355)" fill-opacity="1" stroke="none" display="inline" transform="scale(1,-1)"/></g><path id="path2488" fill="url(#linearGradient3250)" fill-opacity="1" fill-rule="nonzero" stroke="url(#linearGradient3252)" stroke-dasharray="none" stroke-dashoffset="0" stroke-linecap="round" stroke-linejoin="miter" stroke-miterlimit="4" stroke-opacity="1" stroke-width="2.707" d="m 36.878402,52.215547 66.608398,0 c 3.88839,0 5.63826,-0.563171 6.75518,1.965338 l 6.77817,15.722713 0,50.457932 c 0,3.05279 0.23243,2.58635 -3.65598,2.58635 l -85.277392,0 c -3.888407,0 -3.655984,0.46644 -3.655984,-2.58635 l 0,-50.457932 6.778175,-15.722713 c 1.085759,-2.477433 1.781026,-1.965338 5.669433,-1.965338 z" display="block" overflow="visible" visibility="visible" style="marker:none"/><path id="path3772" fill="none" stroke="url(#linearGradient3777)" stroke-dasharray="none" stroke-dashoffset="0" stroke-linecap="round" stroke-linejoin="miter" stroke-miterlimit="4" stroke-opacity="1" stroke-width="2.707" d="m 33.966217,54.892865 c -2.410623,5.16061 -4.576605,10.447242 -6.892361,15.656721 0,16.59272 0,33.185444 0,49.778164 29.101062,0 58.202173,0 87.303234,0 0,-16.59272 0,-33.185444 0,-49.778164 -2.23693,-5.203815 -4.57938,-10.36842 -6.75039,-15.59673 -1.77374,-0.207785 -4.30708,-4.22e-4 -6.39955,-0.05999 -22.42029,-4.1e-5 -44.840765,5.4e-5 -67.260933,0 z" display="block" opacity=".5" overflow="visible" visibility="visible" style="marker:none"/><path d="m 39.115791,53.531408 c -1.174657,0 -1.550933,0.191721 -1.860876,0.425455 -0.309946,0.233734 -0.712103,0.727084 -1.063358,1.701817 l -4.607885,14.210176 81.346878,0 -4.6965,-13.69963 c -0.59167,-1.412332 -1.01509,-1.867564 -1.41781,-2.127272 -0.40272,-0.259711 -1.01751,-0.510546 -2.39256,-0.510546 l -65.307889,0 z" style="marker:none" id="path3692" fill="url(#linearGradient3328)" fill-opacity="1" fill-rule="nonzero" stroke="none" stroke-width="1" color="#000" display="block" opacity=".6" overflow="visible" visibility="visible"/><path d="m 37.422216,53.531408 c -1.388264,0 -1.832966,0.191721 -2.199274,0.425455 -0.366307,0.233734 -0.841593,0.727084 -1.256725,1.701817 l -5.445816,14.210176 16.337448,0 0,-16.337448 -7.435633,0 z" style="marker:none" id="path3694" fill="url(#linearGradient3325)" fill-opacity="1" fill-rule="nonzero" stroke="none" stroke-width="1" color="#000" display="block" opacity=".6" overflow="visible" visibility="visible"/><g id="g3899" opacity=".84" transform="matrix(2.7229079,0,0,2.7229079,20.351677,-0.926749)"><path id="path3901" fill="url(#linearGradient3917)" fill-opacity="1" fill-rule="nonzero" stroke="#c4a000" stroke-dashoffset="0" stroke-linecap="round" stroke-linejoin="round" stroke-miterlimit="4" stroke-opacity="1" stroke-width="1" d="m 11.5,2.5 5,0 L 16.391747,23.437502 11.5,23.500002 11.5,2.5 z" color="#000" display="inline" enable-background="accumulate" overflow="visible" visibility="visible" style="marker:none"/><rect id="rect3903" width="3" height="19" x="12.5" y="3.5" fill="none" stroke="url(#linearGradient3925)" stroke-dasharray="none" stroke-dashoffset="0" stroke-linecap="round" stroke-linejoin="miter" stroke-miterlimit="4" stroke-opacity="1" stroke-width="1" color="#000" display="inline" enable-background="accumulate" opacity=".5" overflow="visible" visibility="visible" style="marker:none"/><g id="g3905"><rect id="rect3907" width="2" height="1.031" x="14" y="6" fill="#c4a000" fill-opacity="1" fill-rule="nonzero" stroke="none" stroke-width="1" color="#000" display="inline" enable-background="accumulate" opacity=".621" overflow="visible" visibility="visible" style="marker:none"/><rect id="rect3909" width="2" height="1.031" x="14" y="9" fill="#c4a000" fill-opacity="1" fill-rule="nonzero" stroke="none" stroke-width="1" color="#000" display="inline" enable-background="accumulate" opacity=".621" overflow="visible" visibility="visible" style="marker:none"/><rect id="rect3911" width="2" height="1.031" x="14" y="12" fill="#c4a000" fill-opacity="1" fill-rule="nonzero" stroke="none" stroke-width="1" color="#000" display="inline" enable-background="accumulate" opacity=".621" overflow="visible" visibility="visible" style="marker:none"/><rect id="rect3913" width="2" height="1.031" x="14" y="15" fill="#c4a000" fill-opacity="1" fill-rule="nonzero" stroke="none" stroke-width="1" color="#000" display="inline" enable-background="accumulate" opacity=".621" overflow="visible" visibility="visible" style="marker:none"/><rect id="rect3915" width="2" height="1.031" x="14" y="18" fill="#c4a000" fill-opacity="1" fill-rule="nonzero" stroke="none" stroke-width="1" color="#000" display="inline" enable-background="accumulate" opacity=".621" overflow="visible" visibility="visible" style="marker:none"/></g></g><path d="m 103.91913,53.531408 c 1.40536,0 1.85553,0.191721 2.22635,0.425455 0.37082,0.233734 0.85196,0.727084 1.2722,1.701817 l 5.51287,14.210176 -16.538603,0 0,-16.337448 7.527183,0 z" style="marker:none" id="path3696" fill="url(#linearGradient3313)" fill-opacity="1" fill-rule="nonzero" stroke="none" stroke-width="1" color="#000" display="block" opacity=".67" overflow="visible" visibility="visible"/><g id="g3877" transform="matrix(2.3581074,-1.3614537,1.3614537,2.3581074,-9.578366,38.425802)"><path id="rect3846" fill="url(#linearGradient3893)" fill-opacity="1" fill-rule="nonzero" stroke="#b89600" stroke-dashoffset="0" stroke-linecap="round" stroke-linejoin="round" stroke-miterlimit="4" stroke-opacity="1" stroke-width="1" d="m 11.5,2.5 5,0 L 16.391747,23.437502 11.586278,20.663063 11.5,2.5 z" color="#000" display="inline" enable-background="accumulate" overflow="visible" visibility="visible" style="marker:none"/><path id="rect3858" fill="none" stroke="url(#linearGradient4293)" stroke-dashoffset="0" stroke-linecap="round" stroke-linejoin="miter" stroke-miterlimit="4" stroke-opacity="1" stroke-width="1" d="m 12.5,3.5 3,0 0,19.000002 L 12.587921,21.035219 12.5,3.5 z" color="#000" display="inline" enable-background="accumulate" opacity=".5" overflow="visible" visibility="visible" style="marker:none"/><g id="g3870"><rect id="rect3860" width="2" height="1.031" x="14" y="6" fill="#c4a000" fill-opacity="1" fill-rule="nonzero" stroke="none" stroke-width="1" color="#000" display="inline" enable-background="accumulate" opacity=".621" overflow="visible" visibility="visible" style="marker:none"/><rect id="rect3862" width="2" height="1.031" x="14" y="9" fill="#c4a000" fill-opacity="1" fill-rule="nonzero" stroke="none" stroke-width="1" color="#000" display="inline" enable-background="accumulate" opacity=".621" overflow="visible" visibility="visible" style="marker:none"/><rect id="rect3864" width="2" height="1.031" x="14" y="12" fill="#c4a000" fill-opacity="1" fill-rule="nonzero" stroke="none" stroke-width="1" color="#000" display="inline" enable-background="accumulate" opacity=".621" overflow="visible" visibility="visible" style="marker:none"/><rect id="rect3866" width="2" height="1.031" x="14" y="15" fill="#c4a000" fill-opacity="1" fill-rule="nonzero" stroke="none" stroke-width="1" color="#000" display="inline" enable-background="accumulate" opacity=".621" overflow="visible" visibility="visible" style="marker:none"/><rect id="rect3868" width="2" height="1.031" x="14" y="18" fill="#c4a000" fill-opacity="1" fill-rule="nonzero" stroke="none" stroke-width="1" color="#000" display="inline" enable-background="accumulate" opacity=".621" overflow="visible" visibility="visible" style="marker:none"/></g></g><path id="path3698" fill="url(#radialGradient3300)" fill-opacity="1" fill-rule="nonzero" stroke="#2e3436" stroke-dasharray="none" stroke-dashoffset="0" stroke-linecap="round" stroke-linejoin="round" stroke-miterlimit="4" stroke-opacity="1" stroke-width="2.723" d="m 63.833113,60.338678 c -5.96521,0 -10.806541,3.659589 -10.806541,8.168724 0,0.956631 0.280416,1.869587 0.680727,2.722908 l 20.251628,0 c 0.400311,-0.853321 0.680727,-1.766277 0.680727,-2.722908 0,-4.509135 -4.841333,-8.168724 -10.806541,-8.168724 z" color="#000" display="inline" enable-background="accumulate" overflow="visible" visibility="visible" style="marker:none"/><g id="g3927" transform="matrix(2.630127,0.7047403,-0.7047403,2.630127,31.734636,-31.83002)"><g id="g3700" transform="translate(-2,20)"><path id="path3702" fill="url(#linearGradient3934)" fill-opacity="1" fill-rule="nonzero" stroke="#888a85" stroke-dasharray="none" stroke-dashoffset="0" stroke-linecap="round" stroke-linejoin="miter" stroke-miterlimit="4" stroke-opacity="1" stroke-width="1" d="m 32.5,6.5 c -2.207764,0 -4,0.672 -4,1.5 L 28.47473,26.250876 36.5,25.5 c -2.14e-4,-6.54711 0,-14.060322 0,-17.5 0,-0.828 -1.792236,-1.5 -4,-1.5 z" color="#000" display="inline" enable-background="accumulate" overflow="visible" transform="translate(0,-20)" visibility="visible" style="marker:none"/><path id="path3704" fill="#fff" fill-opacity="1" fill-rule="nonzero" stroke="url(#radialGradient3936)" stroke-dasharray="none" stroke-dashoffset="0" stroke-linecap="round" stroke-linejoin="miter" stroke-miterlimit="4" stroke-opacity="1" stroke-width="1.112" d="m 36.504387,8.2694378 a 3.999573,1.8561554 0 1 1 -7.999146,0 3.999573,1.8561554 0 1 1 7.999146,0 z" color="#000" display="inline" enable-background="accumulate" overflow="visible" transform="matrix(1,0,0,0.808122,0,-18.682714)" visibility="visible" style="marker:none"/><path id="path3706" fill="none" stroke="#888a85" stroke-dashoffset="0" stroke-linecap="round" stroke-linejoin="miter" stroke-miterlimit="4" stroke-opacity="1" stroke-width="1" d="m 36.504387,-4.999999 c 0,0.828 -1.791809,1.499999 -3.999573,1.499999 -2.207764,0 -3.999573,-0.671999 -3.999573,-1.499999" color="#000" display="inline" enable-background="accumulate" opacity=".529" overflow="visible" visibility="visible" style="marker:none"/></g><path id="path3708" fill="none" stroke="url(#linearGradient3944)" stroke-dasharray="none" stroke-dashoffset="0" stroke-linecap="round" stroke-linejoin="miter" stroke-miterlimit="4" stroke-opacity="1" stroke-width="1" d="M 30.5,7.5 C 29.496989,7.5 28.599735,7.661827 28.03125,7.875 27.765957,7.974481 27.579146,8.061242 27.5,8.125 l 0,17.375 6,0 c -4.58e-4,-6.397466 -5.1e-5,-13.894689 0,-17.375 C 33.420854,8.061242 33.234043,7.974481 32.96875,7.875 32.400265,7.661827 31.503011,7.5 30.5,7.5 z" color="#000" display="inline" enable-background="accumulate" opacity=".5" overflow="visible" visibility="visible" style="marker:none"/></g><path id="path3718" fill="#75507b" fill-opacity="1" fill-rule="nonzero" stroke="url(#linearGradient3291)" stroke-dasharray="none" stroke-dashoffset="0" stroke-linecap="round" stroke-linejoin="round" stroke-miterlimit="4" stroke-opacity="1" stroke-width="2.723" d="m 38.050579,41.746323 -2.722908,15.869447 0,13.61454 10.891631,0 0,-29.483987 -2.04218,-0.468 -2.042181,0 -2.042181,0 -2.042181,0.468 z" color="#000" display="inline" enable-background="accumulate" overflow="visible" visibility="visible" style="marker:none"/><path d="m 40.09276,42.639777 -0.850909,0.170182 -2.552726,14.805811 0.04256,-0.425454 0,14.805812 5.445816,-0.02124 -0.04256,-14.362732 2.722908,-14.802198 -0.680727,-0.170182 -2.042181,0 -2.042181,0 z" style="marker:none" id="path3720" fill="url(#linearGradient3288)" fill-opacity="1" fill-rule="nonzero" stroke="none" stroke-width="1" color="#000" display="inline" enable-background="accumulate" overflow="visible" visibility="visible"/><g id="g2417" transform="matrix(2.7229079,0,0,2.7229079,6.737138,1.796161)"><path id="path2387" fill="#5c3566" fill-opacity="1" fill-rule="nonzero" stroke="url(#linearGradient2400)" stroke-dasharray="none" stroke-dashoffset="0" stroke-linecap="round" stroke-linejoin="round" stroke-miterlimit="4" stroke-opacity="1" stroke-width="1" d="m 14.5,14.671875 -1,5.828125 0,5 4,0 0,-10.828125 L 16.75,14.5 l -0.75,0 -0.75,0 -0.75,0.171875 z" color="#000" display="inline" enable-background="accumulate" overflow="visible" visibility="visible" style="marker:none"/><path d="M 15.25,15 14.9375,15.0625 14,20.5 l 0.01563,-0.15625 0,5.4375 2,-0.0078 L 16,20.498673 17,15.0625 16.75,15 16,15 15.25,15 z" style="marker:none" id="path2391" fill="url(#linearGradient2403)" fill-opacity="1" fill-rule="nonzero" stroke="none" stroke-width="1" color="#000" display="inline" enable-background="accumulate" overflow="visible" visibility="visible"/><path d="M 15.25,15 14.9375,15.0625 14,20.5 16,20.498673 17,15.0625 16.75,15 16,15 15.25,15 z" style="marker:none" id="path2393" fill="url(#linearGradient2405)" fill-opacity="1" fill-rule="nonzero" stroke="none" stroke-width="1" color="#000" display="inline" enable-background="accumulate" overflow="visible" visibility="visible"/><path id="path2395" fill="#000" fill-opacity="1" fill-rule="evenodd" stroke="none" d="m 15.6875,17.5 -0.375,3 0.09375,5.28125 0.0625,-5.28125 0.21875,-3 z" opacity=".318"/><path id="path2397" fill="#000" fill-opacity="1" fill-rule="evenodd" stroke="none" d="m 15.3125,15.03125 -1,5.46875 0.09375,5.28125 0.0625,-5.28125 0.84375,-5.46875 z" opacity=".268"/><path id="path2399" fill="#000" fill-opacity="1" fill-rule="evenodd" stroke="none" d="M 15.15625,18.4375 14.875,20.5 14.984375,24.609375 15.03125,20.5 l 0.125,-2.0625 z" opacity=".513"/></g><path d="m 40.09276,42.639777 -0.850909,0.170182 -2.552726,14.805811 5.445816,-0.0035 2.722908,-14.802199 -0.680727,-0.170182 -2.042181,0 -2.042181,0 z" style="marker:none" id="path3722" fill="url(#linearGradient3278)" fill-opacity="1" fill-rule="nonzero" stroke="none" stroke-width="1" color="#000" display="inline" enable-background="accumulate" overflow="visible" visibility="visible"/><path id="path3951" fill="#000" fill-opacity="1" fill-rule="evenodd" stroke="none" d="m 41.284032,49.447047 -1.021091,8.168723 0.255273,14.380358 0.170182,-14.380358 0.595636,-8.168723 z" opacity=".318"/><path id="path3948" fill="#000" fill-opacity="1" fill-rule="evenodd" stroke="none" d="M 40.262941,42.724868 37.540034,57.61577 37.795306,71.996128 37.965488,57.61577 40.262941,42.724868 z" opacity=".268"/><g id="g2371" transform="matrix(2.630127,-0.7047403,0.7047403,2.630127,5.876462,17.597109)"><path id="path3724" fill="#75507b" fill-opacity="1" fill-rule="nonzero" stroke="url(#linearGradient2390)" stroke-dasharray="none" stroke-dashoffset="0" stroke-linecap="round" stroke-linejoin="round" stroke-miterlimit="4" stroke-opacity="1" stroke-width="1" d="m 19.75,15 -0.71875,0.1875 -0.75,0.21875 -0.65625,0.34375 0.53125,5.90625 0.953125,3.4375 4.125,0 L 20.6875,15.6875 C 20.446816,14.967169 20.013567,14.985925 19.75,15 z" color="#000" display="inline" enable-background="accumulate" overflow="visible" transform="matrix(0.9659259,0.258819,-0.258819,0.9659259,1.5651722,-5.1030033)" visibility="visible" style="marker:none"/><path id="path3726" fill="url(#linearGradient2379)" fill-opacity="1" fill-rule="nonzero" stroke="none" stroke-width="1" d="m 20.125,15.46875 -0.25,0.03125 -0.71875,0.1875 -0.75,0.1875 -0.28125,0.15625 0.5,5.3125 1.09375,4.15625 2.0625,0 -1.0625,-4.53125 -0.59375,-5.5 z" color="#000" display="inline" enable-background="accumulate" overflow="visible" transform="matrix(0.9659259,0.258819,-0.258819,0.9659259,1.5651722,-5.1030033)" visibility="visible" style="marker:none"/><path d="M 15.25,15 14.9375,15.0625 14,20.5 16.163058,20.493836 17,15.0625 16.75,15 16,15 15.25,15 z" style="marker:none" id="path3732" fill="url(#linearGradient2381)" fill-opacity="1" fill-rule="nonzero" stroke="none" stroke-width="1" color="#000" display="inline" enable-background="accumulate" overflow="visible" visibility="visible"/><path id="path3955" fill="#000" fill-opacity="1" fill-rule="evenodd" stroke="none" d="M 15.8125,17.78125 15.46875,20.5 15.549362,24.985096 15.625,20.5 15.8125,17.78125 z" opacity=".318"/><path id="path3957" fill="#000" fill-opacity="1" fill-rule="evenodd" stroke="none" d="M 14.573995,19.358831 14.3125,20.5 14.428658,22.196139 14.46875,20.5 14.573995,19.358831 z" opacity=".494"/><path id="path3959" fill="#000" fill-opacity="1" fill-rule="evenodd" stroke="none" d="M 15.802067,15.219871 14.875,20.5 14.984375,24.609375 15.03125,20.5 15.802067,15.219871 z" opacity=".318"/></g><path id="path3953" fill="#000" fill-opacity="1" fill-rule="evenodd" stroke="none" d="m 39.837487,51.999773 -0.765818,5.615997 0.297818,11.18945 0.127623,-11.18945 0.340363,-5.615997 z" opacity=".513"/><g id="g2433" transform="matrix(2.7229079,0,0,2.7229079,6.737138,1.796161)"><path id="path3710" fill="#aacd37" fill-opacity="1" fill-rule="nonzero" stroke="#699536" stroke-dasharray="none" stroke-dashoffset="0" stroke-linecap="round" stroke-linejoin="miter" stroke-miterlimit="4" stroke-opacity="1" stroke-width="1" d="M 26.1875,19.5 C 25.248424,19.5 24.5,20.248425 24.5,21.1875 l 0,4.3125 12,0 0,-4.3125 C 36.5,20.248424 35.751576,19.5 34.8125,19.5 l -8.625,0 z" color="#000" display="inline" enable-background="accumulate" overflow="visible" visibility="visible" style="marker:none"/><rect id="rect3712" width="11" height="4" x="25" y="22" fill="#c17d11" fill-opacity="1" fill-rule="nonzero" stroke="none" stroke-width="1" color="#000" display="inline" enable-background="accumulate" opacity=".625" overflow="visible" visibility="visible" style="marker:none"/><path id="path3714" fill="none" stroke="url(#linearGradient3746)" stroke-dashoffset="0" stroke-linecap="round" stroke-linejoin="miter" stroke-miterlimit="4" stroke-opacity="1" stroke-width="1" d="M 26.1875,20.5 C 25.786622,20.5 25.5,20.786623 25.5,21.1875 l 0,4.3125 10,0 0,-4.3125 C 35.5,20.786621 35.213379,20.5 34.8125,20.5 l -8.625,0 z" color="#000" display="inline" enable-background="accumulate" opacity=".295" overflow="visible" visibility="visible" style="marker:none"/><rect id="rect3716" width="11" height="1" x="25" y="22" fill="url(#radialGradient2439)" fill-opacity="1" fill-rule="nonzero" stroke="none" stroke-width="1" color="#000" display="inline" enable-background="accumulate" overflow="visible" rx="0" ry="0" visibility="visible" style="marker:none"/></g><path id="path3730" fill="none" stroke="url(#linearGradient4137)" stroke-dashoffset="0" stroke-linecap="butt" stroke-linejoin="miter" stroke-miterlimit="4" stroke-opacity="1" stroke-width="2.723" d="m 36.236139,54.892865 c -0.527626,0 -0.823157,0.05884 -0.922175,0.08509 -0.09903,0.02614 -0.0052,0.02178 -0.09225,0.08509 -0.01716,0.01225 -0.343471,0.215681 -0.645523,1.02109 l -4.149751,12.423268 80.59807,0 -4.242,-11.827631 0,-0.08509 c -0.51329,-1.148202 -0.77473,-1.355178 -0.92217,-1.446545 -0.20718,-0.128383 -0.41581,-0.255273 -1.65992,-0.255273 l -67.964279,0 z" color="#000" display="block" opacity=".15" overflow="visible" visibility="visible" style="marker:none"/><rect id="rect4133" width="89.856" height="3.267" x="25.797" y="69.869" fill="#dac197" fill-opacity="1" stroke="none"/><path id="path3357" fill="none" stroke="url(#linearGradient3359)" stroke-linecap="square" stroke-linejoin="miter" stroke-opacity="1" stroke-width="2.723" d="m 26.64139,71.230313 87.65061,0" display="inline" opacity=".4"/></svg>