<svg xmlns="http://www.w3.org/2000/svg" xmlns:svg="http://www.w3.org/2000/svg" xmlns:xlink="http://www.w3.org/1999/xlink" id="svg4294" width="140" height="140" version="1.0"><metadata id="metadata101"/><defs id="defs4296"><radialGradient id="radialGradient17422" cx="605.714" cy="486.648" r="117.143" fx="605.714" fy="486.648" gradientTransform="matrix(-2.774389,0,0,1.969706,112.7623,-872.8854)" gradientUnits="userSpaceOnUse" xlink:href="#linearGradient5060"/><linearGradient id="linearGradient5060"><stop id="stop5062" offset="0" stop-color="#000" stop-opacity="1"/><stop id="stop5064" offset="1" stop-color="#000" stop-opacity="0"/></linearGradient><radialGradient id="radialGradient17420" cx="605.714" cy="486.648" r="117.143" fx="605.714" fy="486.648" gradientTransform="matrix(2.774389,0,0,1.969706,-1891.633,-872.8854)" gradientUnits="userSpaceOnUse" xlink:href="#linearGradient5060"/><linearGradient id="linearGradient5048"><stop id="stop5050" offset="0" stop-color="#000" stop-opacity="0"/><stop id="stop5056" offset=".5" stop-color="#000" stop-opacity="1"/><stop id="stop5052" offset="1" stop-color="#000" stop-opacity="0"/></linearGradient><linearGradient id="linearGradient17418" x1="302.857" x2="302.857" y1="366.648" y2="609.505" gradientTransform="matrix(2.774389,0,0,1.969706,-1892.179,-872.8854)" gradientUnits="userSpaceOnUse" xlink:href="#linearGradient5048"/><linearGradient id="linearGradient3220"><stop id="stop3222" offset="0" stop-color="#999" stop-opacity="1"/><stop id="stop3224" offset="1" stop-color="gray" stop-opacity="1"/></linearGradient><linearGradient id="linearGradient3226" x1="15.897" x2="15.897" y1="7" y2="45.035" gradientUnits="userSpaceOnUse" xlink:href="#linearGradient3220"/><linearGradient id="linearGradient3299"><stop id="stop3301" offset="0" stop-color="#d2d2d2" stop-opacity="1"/><stop id="stop3303" offset="1" stop-color="#f4f4f4" stop-opacity="1"/></linearGradient><linearGradient id="linearGradient19408" x1="41.451" x2="41.451" y1="41.638" y2="6.55" gradientTransform="matrix(1.0065024,0,0,1.0158295,-0.1560612,1.6200962)" gradientUnits="userSpaceOnUse" xlink:href="#linearGradient3299"/><linearGradient id="linearGradient3218" x1="21.366" x2="21.366" y1="8" y2="44.263" gradientUnits="userSpaceOnUse" xlink:href="#linearGradient3204"/><linearGradient id="linearGradient24230"><stop id="stop24232" offset="0" stop-color="#858585" stop-opacity="1"/><stop id="stop24234" offset="1" stop-color="#333" stop-opacity="1"/></linearGradient><linearGradient id="linearGradient10960" x1="12.513" x2="12.513" y1="32.974" y2="19.246" gradientTransform="matrix(1.5917169,0,0,0.8667536,-9.9171672,6.4196739)" gradientUnits="userSpaceOnUse" xlink:href="#linearGradient24230"/><linearGradient id="linearGradient3194"><stop id="stop3196" offset="0" stop-color="#000" stop-opacity="1"/><stop id="stop3198" offset="1" stop-color="#000" stop-opacity="0"/></linearGradient><linearGradient id="linearGradient3200" x1="18" x2="18" y1="26" y2="7" gradientTransform="translate(-1.0000004,0)" gradientUnits="userSpaceOnUse" spreadMethod="reflect" xlink:href="#linearGradient3194"/><linearGradient id="linearGradient3210" x1="18" x2="18" y1="26" y2="7" gradientTransform="translate(-1.0000004,0)" gradientUnits="userSpaceOnUse" spreadMethod="reflect" xlink:href="#linearGradient3204"/><linearGradient id="linearGradient3204"><stop id="stop3206" offset="0" stop-color="#fff" stop-opacity="1"/><stop id="stop3208" offset="1" stop-color="#fff" stop-opacity="0"/></linearGradient><linearGradient id="linearGradient3245" x1="10.545" x2="10.545" y1="36" y2="19" gradientUnits="userSpaceOnUse" xlink:href="#linearGradient3204"/><linearGradient id="linearGradient2689" x1="25.463" x2="25.463" y1="27.096" y2="21.226" gradientTransform="matrix(0.4318183,0,0,0.4318183,-4.8636389,1.136361)" gradientUnits="userSpaceOnUse" xlink:href="#linearGradient3326"/><radialGradient id="radialGradient2687" cx="23.677" cy="21" r="3" fx="23.677" fy="21" gradientTransform="matrix(0,0.8636364,-1.0330317,0,27.193665,-10.243529)" gradientUnits="userSpaceOnUse" xlink:href="#linearGradient3260"/><linearGradient id="linearGradient3486" x1="5.507" x2="5.507" y1="12.837" y2="10.309" gradientUnits="userSpaceOnUse" xlink:href="#linearGradient3326"/><linearGradient id="linearGradient3498" x1="25.463" x2="25.463" y1="27.096" y2="21.226" gradientTransform="matrix(0.4318183,0,0,0.4318183,32.136361,1.136361)" gradientUnits="userSpaceOnUse" xlink:href="#linearGradient3326"/><linearGradient id="linearGradient3260"><stop id="stop3262" offset="0" stop-color="#fdf5f5" stop-opacity="1"/><stop id="stop3286" offset=".5" stop-color="#ebe9e9" stop-opacity="1"/><stop id="stop3264" offset="1" stop-color="#959595" stop-opacity="1"/></linearGradient><radialGradient id="radialGradient3496" cx="23.677" cy="21" r="3" fx="23.677" fy="21" gradientTransform="matrix(0,0.8636364,-1.0330317,0,64.193665,-10.243529)" gradientUnits="userSpaceOnUse" xlink:href="#linearGradient3260"/><linearGradient id="linearGradient3326"><stop id="stop3328" offset="0" stop-color="#797979" stop-opacity="1"/><stop id="stop3330" offset="1" stop-color="#fdf5f5" stop-opacity="1"/></linearGradient><linearGradient id="linearGradient3500" x1="5.507" x2="5.507" y1="12.837" y2="10.309" gradientTransform="translate(37,0)" gradientUnits="userSpaceOnUse" xlink:href="#linearGradient3326"/><linearGradient id="linearGradient3326-312-800"><stop id="stop4107" offset="0" stop-color="#6c6c6c" stop-opacity="1"/><stop id="stop4109" offset="1" stop-color="#ebebeb" stop-opacity="1"/></linearGradient><linearGradient id="linearGradient3508-595-985" x1="25.463" x2="25.463" y1="27.096" y2="21.226" gradientTransform="matrix(0.4318183,0,0,0.4318183,-4.8636389,30.136361)" gradientUnits="userSpaceOnUse" xlink:href="#linearGradient3326-312-800"/><linearGradient id="linearGradient3260-197-561"><stop id="stop4099" offset="0" stop-color="#ebebeb" stop-opacity="1"/><stop id="stop4101" offset=".5" stop-color="#dcdcdc" stop-opacity="1"/><stop id="stop4103" offset="1" stop-color="#888" stop-opacity="1"/></linearGradient><radialGradient id="radialGradient3506-901-284" cx="23.677" cy="21" r="3" fx="23.677" fy="21" gradientTransform="matrix(0,0.8636364,-1.0330317,0,27.193665,18.756471)" gradientUnits="userSpaceOnUse" xlink:href="#linearGradient3260-197-561"/><linearGradient id="linearGradient3326-749-282"><stop id="stop4127" offset="0" stop-color="#6c6c6c" stop-opacity="1"/><stop id="stop4129" offset="1" stop-color="#ebebeb" stop-opacity="1"/></linearGradient><linearGradient id="linearGradient3510-190-684" x1="5.507" x2="5.507" y1="12.837" y2="10.309" gradientTransform="translate(0,29)" gradientUnits="userSpaceOnUse" xlink:href="#linearGradient3326-749-282"/><linearGradient id="linearGradient3326-219-984"><stop id="stop4121" offset="0" stop-color="#6c6c6c" stop-opacity="1"/><stop id="stop4123" offset="1" stop-color="#ebebeb" stop-opacity="1"/></linearGradient><linearGradient id="linearGradient3518-429-316" x1="25.463" x2="25.463" y1="27.096" y2="21.226" gradientTransform="matrix(0.4318183,0,0,0.4318183,32.136361,30.136361)" gradientUnits="userSpaceOnUse" xlink:href="#linearGradient3326-219-984"/><linearGradient id="linearGradient3260-254-431"><stop id="stop4113" offset="0" stop-color="#ebebeb" stop-opacity="1"/><stop id="stop4115" offset=".5" stop-color="#dcdcdc" stop-opacity="1"/><stop id="stop4117" offset="1" stop-color="#888" stop-opacity="1"/></linearGradient><radialGradient id="radialGradient3516-529-157" cx="23.677" cy="21" r="3" fx="23.677" fy="21" gradientTransform="matrix(0,0.8636364,-1.0330317,0,64.193665,18.756471)" gradientUnits="userSpaceOnUse" xlink:href="#linearGradient3260-254-431"/><linearGradient id="linearGradient3326-773-833"><stop id="stop4093" offset="0" stop-color="#6c6c6c" stop-opacity="1"/><stop id="stop4095" offset="1" stop-color="#ebebeb" stop-opacity="1"/></linearGradient><linearGradient id="linearGradient3520-4-601" x1="5.507" x2="5.507" y1="12.837" y2="10.309" gradientTransform="translate(37,29)" gradientUnits="userSpaceOnUse" xlink:href="#linearGradient3326-773-833"/></defs><g id="layer1" transform="matrix(2.568375,0,0,2.568375,10.359001,1.653876)"><g id="g5022" stroke-dasharray="none" stroke-miterlimit="6.4" stroke-width="44.186" transform="matrix(0.02454499,0,0,0.02086758,45.831187,40.162522)"><rect id="rect4173" width="1339.633" height="478.357" x="-1559.252" y="-150.697" fill="url(#linearGradient17418)" fill-opacity="1" fill-rule="nonzero" stroke="none" stroke-width="44.186" display="inline" opacity=".402" overflow="visible" visibility="visible" style="marker:none"/><path id="path5058" fill="url(#radialGradient17420)" fill-opacity="1" fill-rule="nonzero" stroke="none" stroke-width="44.186" d="m -219.61876,-150.68038 c 0,0 0,478.33079 0,478.33079 142.874166,0.90045 345.40022,-107.16966 345.40014,-239.196175 0,-132.026537 -159.436816,-239.134595 -345.40014,-239.134615 z" display="inline" opacity=".402" overflow="visible" visibility="visible" style="marker:none"/><path id="path5018" fill="url(#radialGradient17422)" fill-opacity="1" fill-rule="nonzero" stroke="none" stroke-width="44.186" d="m -1559.2523,-150.68038 c 0,0 0,478.33079 0,478.33079 -142.8742,0.90045 -345.4002,-107.16966 -345.4002,-239.196175 0,-132.026537 159.4368,-239.134595 345.4002,-239.134615 z" display="inline" opacity=".402" overflow="visible" visibility="visible" style="marker:none"/></g><rect id="rect11518" width="44.989" height="36.989" x="1.506" y="7.506" fill="url(#linearGradient19408)" fill-opacity="1" fill-rule="evenodd" stroke="url(#linearGradient3226)" stroke-dasharray="none" stroke-dashoffset="0" stroke-linecap="butt" stroke-linejoin="bevel" stroke-miterlimit="6.4" stroke-opacity="1" stroke-width="1.011" display="inline" overflow="visible" rx=".864" ry=".872" visibility="visible" style="marker:none"/><rect id="rect11528" width="42.963" height="34.963" x="2.518" y="8.518" fill="none" stroke="url(#linearGradient3218)" stroke-dasharray="none" stroke-dashoffset="0" stroke-linecap="butt" stroke-linejoin="miter" stroke-miterlimit="6.4" stroke-opacity="1" stroke-width="1.037" display="inline" opacity=".6" overflow="visible" rx="0" ry="0" visibility="visible" style="marker:none"/><rect id="rect23355" width="8" height="14.712" x="6" y="20.288" fill="url(#linearGradient10960)" fill-opacity="1" fill-rule="nonzero" stroke="none" stroke-width="1" display="inline" overflow="visible" visibility="visible" style="marker:none"/><rect id="rect24246" width="6.953" height="5.953" x="6.523" y="20.523" fill="#eeeeec" fill-opacity="1" fill-rule="nonzero" stroke="#9b9b9b" stroke-dasharray="none" stroke-dashoffset="0" stroke-linecap="round" stroke-linejoin="round" stroke-miterlimit="6.4" stroke-opacity="1" stroke-width="1.047" display="inline" overflow="visible" visibility="visible" style="marker:none"/><rect stroke-linecap="butt" style="marker:none" id="rect24252" width="4.946" height="3.946" x="7.527" y="21.527" fill="none" stroke="#fff" stroke-dasharray="none" stroke-dashoffset="0" stroke-linejoin="miter" stroke-miterlimit="6.4" stroke-opacity="1" stroke-width="1.054" display="inline" overflow="visible" visibility="visible"/><path id="path3398" fill="none" stroke="url(#linearGradient3200)" stroke-dasharray="none" stroke-linecap="butt" stroke-linejoin="round" stroke-miterlimit="6.4" stroke-opacity="1" stroke-width="1.001" d="M 17.529938,7.5003762 17.500377,44.499623" opacity=".3"/><path id="path3202" fill="none" stroke="url(#linearGradient3210)" stroke-dasharray="none" stroke-linecap="butt" stroke-linejoin="round" stroke-miterlimit="6.4" stroke-opacity="1" stroke-width="1.001" d="M 18.529938,7.5003762 18.500377,44.499623" opacity=".4"/><g id="g3687" opacity=".4" transform="translate(-1.0000003,0.9999999)"><path id="path3391" fill="#fff" fill-opacity="1" fill-rule="nonzero" stroke="none" stroke-width="1" d="m 27.830438,17.00776 c -0.19523,0.01106 -0.381812,0.02772 -0.583446,0.06336 l -0.703566,0.586077 2.179338,1.90079 0.120122,1.663195 -1.630214,1.362232 -1.939095,-0.19008 L 23.283,20.666783 c 0,0 -0.686406,0.633596 -0.686406,0.633596 -0.324404,2.859457 2.917224,5.417253 6.246292,3.706543 l 2.522539,2.391828 -0.120121,0.110879 -0.0858,-0.0792 c -0.203461,-0.208676 -0.549446,-0.306145 -0.926645,-0.300957 -0.628665,0.0086 -1.363624,0.289354 -1.750335,0.776155 -1.844377,2.329707 -4.846058,4.195328 -5.525565,4.419337 -1.300282,0.42866 -1.151973,2.183838 -0.291722,3.025426 l 0.995288,1.013754 c 0.72297,0.742692 2.730242,1.07424 3.62079,-0.364317 0.388286,-0.627231 1.149905,-2.388805 4.547435,-5.211335 0.570623,-0.47351 1.164506,-1.554097 0.652085,-2.138389 l -0.0858,-0.0792 c 0.02992,-0.02754 0.07062,-0.06517 0.102961,-0.09504 l 6.761096,6.383487 c 0.421996,0.445176 1.766407,0.789241 2.659821,0 0.862741,-0.762147 0.655227,-1.83453 -0.188761,-2.613586 l -6.435054,-6.383488 c 1.667582,-1.563922 3.363389,-3.152143 3.363389,-3.152143 L 40.340178,22.599254 43,19.19367 l -2.213658,-1.805751 -3.432028,2.724467 0,1.552312 -3.208947,3.072946 -2.419579,-2.407669 c 1.158311,-2.969987 -0.966914,-5.488141 -3.89535,-5.322215 z" display="inline" overflow="visible" visibility="visible" style="marker:none"/><path id="path2140" fill="#000" fill-opacity="1" fill-rule="nonzero" stroke="none" stroke-width="1" d="m 27.830438,16.00776 c -0.19523,0.01106 -0.381812,0.02772 -0.583446,0.06336 l -0.703566,0.586077 2.179338,1.900792 0.120122,1.663192 -1.630214,1.362232 -1.939095,-0.19008 L 23.283,19.666782 c 0,0 -0.686406,0.633596 -0.686406,0.633596 -0.324404,2.859459 2.917224,5.417254 6.246292,3.706543 l 2.522539,2.391828 -0.120121,0.110879 -0.0858,-0.0792 c -0.203461,-0.208677 -0.549446,-0.306145 -0.926645,-0.300958 -0.628665,0.0086 -1.363624,0.289354 -1.750335,0.776156 -1.844377,2.329707 -4.846058,4.195327 -5.525565,4.419337 -1.300282,0.42866 -1.151973,2.183838 -0.291722,3.025427 l 0.995288,1.013753 c 0.72297,0.742692 2.730242,1.07424 3.62079,-0.364316 0.388286,-0.627231 1.149905,-2.388806 4.547435,-5.211336 0.570623,-0.473509 1.164506,-1.554097 0.652085,-2.13839 l -0.0858,-0.0792 c 0.02992,-0.02754 0.07062,-0.06517 0.102961,-0.09504 l 6.761096,6.383488 c 0.421996,0.445177 1.766407,0.789241 2.659821,0 0.862741,-0.762147 0.655227,-1.83453 -0.188761,-2.613586 L 35.295098,24.862274 C 36.96268,23.298352 38.658487,21.71013 38.658487,21.71013 L 40.340178,21.599253 43,18.19367 l -2.213658,-1.805751 -3.432028,2.724467 0,1.552311 -3.208947,3.072946 -2.419579,-2.407669 c 1.158311,-2.969985 -0.966914,-5.488138 -3.89535,-5.322214 z" display="inline" overflow="visible" visibility="visible" style="marker:none"/></g><rect id="rect3235" width="9" height="16" x="5.5" y="19.5" fill="none" stroke="url(#linearGradient3245)" stroke-dasharray="none" stroke-dashoffset="0" stroke-linecap="butt" stroke-linejoin="miter" stroke-miterlimit="6.4" stroke-opacity="1" stroke-width="1" display="inline" opacity=".3" overflow="visible" visibility="visible" style="marker:none"/><path id="path3321" fill="url(#radialGradient2687)" fill-opacity="1" fill-rule="nonzero" stroke="url(#linearGradient2689)" stroke-dasharray="none" stroke-dashoffset="0" stroke-linecap="butt" stroke-linejoin="round" stroke-miterlimit="4" stroke-opacity="1" stroke-width=".409" d="m 6.7954555,11.5 c 0,0.715461 -0.579995,1.295455 -1.295455,1.295455 -0.71546,0 -1.295455,-0.579994 -1.295455,-1.295455 0,-0.71546 0.579995,-1.295455 1.295455,-1.295455 0.71546,0 1.295455,0.579995 1.295455,1.295455 l 0,0 z" display="inline" enable-background="accumulate" overflow="visible" visibility="visible" style="marker:none"/><path id="path2708" fill="none" stroke="url(#linearGradient3486)" stroke-dasharray="none" stroke-linecap="butt" stroke-linejoin="miter" stroke-miterlimit="4" stroke-opacity="1" stroke-width=".5" d="m 4.9286305,10.350739 1.3138722,2.275693"/><path id="path3492" fill="url(#radialGradient3496)" fill-opacity="1" fill-rule="nonzero" stroke="url(#linearGradient3498)" stroke-dasharray="none" stroke-dashoffset="0" stroke-linecap="butt" stroke-linejoin="round" stroke-miterlimit="4" stroke-opacity="1" stroke-width=".409" d="m 43.795455,11.5 c 0,0.715461 -0.579995,1.295455 -1.295455,1.295455 -0.71546,0 -1.295455,-0.579994 -1.295455,-1.295455 0,-0.71546 0.579995,-1.295455 1.295455,-1.295455 0.71546,0 1.295455,0.579995 1.295455,1.295455 l 0,0 z" display="inline" enable-background="accumulate" overflow="visible" visibility="visible" style="marker:none"/><path id="path3494" fill="none" stroke="url(#linearGradient3500)" stroke-dasharray="none" stroke-linecap="butt" stroke-linejoin="miter" stroke-miterlimit="4" stroke-opacity="1" stroke-width=".5" d="m 41.92863,10.350739 1.313873,2.275693"/><path id="path3502" fill="url(#radialGradient3506-901-284)" fill-opacity="1" fill-rule="nonzero" stroke="url(#linearGradient3508-595-985)" stroke-dasharray="none" stroke-dashoffset="0" stroke-linecap="butt" stroke-linejoin="round" stroke-miterlimit="4" stroke-opacity="1" stroke-width=".409" d="m 6.7954555,40.5 c 0,0.715461 -0.579995,1.295455 -1.295455,1.295455 -0.71546,0 -1.295455,-0.579994 -1.295455,-1.295455 0,-0.71546 0.579995,-1.295455 1.295455,-1.295455 0.71546,0 1.295455,0.579995 1.295455,1.295455 l 0,0 z" display="inline" enable-background="accumulate" overflow="visible" visibility="visible" style="marker:none"/><path id="path3504" fill="none" stroke="url(#linearGradient3510-190-684)" stroke-dasharray="none" stroke-linecap="butt" stroke-linejoin="miter" stroke-miterlimit="4" stroke-opacity="1" stroke-width=".5" d="m 4.9286305,39.350739 1.3138722,2.275693"/><path id="path3512" fill="url(#radialGradient3516-529-157)" fill-opacity="1" fill-rule="nonzero" stroke="url(#linearGradient3518-429-316)" stroke-dasharray="none" stroke-dashoffset="0" stroke-linecap="butt" stroke-linejoin="round" stroke-miterlimit="4" stroke-opacity="1" stroke-width=".409" d="m 43.795455,40.5 c 0,0.715461 -0.579995,1.295455 -1.295455,1.295455 -0.71546,0 -1.295455,-0.579994 -1.295455,-1.295455 0,-0.71546 0.579995,-1.295455 1.295455,-1.295455 0.71546,0 1.295455,0.579995 1.295455,1.295455 l 0,0 z" display="inline" enable-background="accumulate" overflow="visible" visibility="visible" style="marker:none"/><path id="path3514" fill="none" stroke="url(#linearGradient3520-4-601)" stroke-dasharray="none" stroke-linecap="butt" stroke-linejoin="miter" stroke-miterlimit="4" stroke-opacity="1" stroke-width=".5" d="m 41.92863,39.350739 1.313873,2.275693"/></g></svg>