<svg xmlns="http://www.w3.org/2000/svg" xmlns:svg="http://www.w3.org/2000/svg" xmlns:xlink="http://www.w3.org/1999/xlink" id="svg11300" width="140" height="140" version="1.0"><metadata id="metadata99"/><defs id="defs3"><linearGradient id="linearGradient6393"><stop id="stop6395" offset="0" stop-color="#f7fc66" stop-opacity="1"/><stop id="stop6397" offset="1" stop-color="#6efb27" stop-opacity="1"/></linearGradient><linearGradient id="linearGradient6866"><stop id="stop6868" offset="0" stop-color="#828282" stop-opacity="1"/><stop id="stop6870" offset="1" stop-color="#aaa" stop-opacity="1"/></linearGradient><linearGradient id="linearGradient6842"><stop id="stop6844" offset="0" stop-color="#fff" stop-opacity="1"/><stop id="stop6846" offset="1" stop-color="#fff" stop-opacity="0"/></linearGradient><linearGradient id="linearGradient6828"><stop id="stop6830" offset="0" stop-color="#6e6e6e" stop-opacity="1"/><stop id="stop6832" offset="1" stop-color="#1e1e1e" stop-opacity="1"/></linearGradient><linearGradient id="linearGradient2463"><stop id="stop2465" offset="0" stop-color="#fff" stop-opacity="1"/><stop id="stop2467" offset="1" stop-color="#fff" stop-opacity="0"/></linearGradient><linearGradient id="linearGradient2366"><stop id="stop2368" offset="0" stop-color="#2e3436" stop-opacity="1"/><stop id="stop2370" offset="1" stop-color="#555753" stop-opacity="1"/></linearGradient><linearGradient id="linearGradient7612"><stop id="stop7614" offset="0" stop-color="#000" stop-opacity="1"/><stop id="stop7616" offset="1" stop-color="#000" stop-opacity="0"/></linearGradient><linearGradient id="linearGradient8589"><stop id="stop8591" offset="0" stop-color="#fefefe" stop-opacity="1"/><stop id="stop8593" offset="1" stop-color="#bebebe" stop-opacity="1"/></linearGradient><linearGradient id="linearGradient3600"><stop id="stop3602" offset="0" stop-color="#f4f4f4" stop-opacity="1"/><stop id="stop3604" offset="1" stop-color="#dbdbdb" stop-opacity="1"/></linearGradient><linearGradient id="linearGradient3104"><stop id="stop3106" offset="0" stop-color="#969696" stop-opacity="1"/><stop id="stop3108" offset="1" stop-color="#bebebe" stop-opacity="1"/></linearGradient><linearGradient id="linearGradient2444" x1="24.875" x2="24.875" y1="41" y2="38" gradientTransform="matrix(2.6666773,0,0,2.6666773,7.999744,6.854537)" gradientUnits="userSpaceOnUse" xlink:href="#linearGradient6828"/><linearGradient id="linearGradient2447" x1="21.063" x2="21.063" y1="38" y2="43.38" gradientTransform="matrix(2.6666773,0,0,2.6666773,7.999744,6.854537)" gradientUnits="userSpaceOnUse" xlink:href="#linearGradient8589"/><radialGradient id="radialGradient2450" cx="40.092" cy="31.497" r=".389" fx="40.092" fy="31.497" gradientTransform="matrix(2.5560656,-0.26578764,0.3028532,2.9125222,5.649281,11.442868)" gradientUnits="userSpaceOnUse" xlink:href="#linearGradient6393"/><linearGradient id="linearGradient2453" x1="39.948" x2="39.931" y1="28.417" y2="31.987" gradientTransform="matrix(1.5003217,0,0,1.7147359,57.154132,40.794032)" gradientUnits="userSpaceOnUse" xlink:href="#linearGradient3104"/><radialGradient id="radialGradient2456" cx="11.537" cy="15.28" r="13" fx="11.537" fy="15.28" gradientTransform="matrix(2.6666773,0,0,1.0256452,7.999744,51.162375)" gradientUnits="userSpaceOnUse" xlink:href="#linearGradient2463"/><linearGradient id="linearGradient2459" x1="7.517" x2="7.455" y1="31.156" y2="40.875" gradientTransform="matrix(2.5882455,0,0,2.1333418,9.882105,28.454623)" gradientUnits="userSpaceOnUse" xlink:href="#linearGradient6828"/><linearGradient id="linearGradient2461" x1="9.563" x2="9.5" y1="41.375" y2="33.5" gradientTransform="matrix(2.6666773,0,0,2.6666773,9.333083,5.521198)" gradientUnits="userSpaceOnUse" xlink:href="#linearGradient2366"/><linearGradient id="linearGradient2464" x1="21.919" x2="22.008" y1="21" y2="33" gradientTransform="matrix(2.6666773,0,0,2.6666773,7.999743,6.854486)" gradientUnits="userSpaceOnUse" xlink:href="#linearGradient6828"/><linearGradient id="linearGradient2466" x1="15.601" x2="15.335" y1="33" y2="21" gradientTransform="matrix(2.6666773,0,0,2.6666773,7.999743,6.854486)" gradientUnits="userSpaceOnUse" xlink:href="#linearGradient2366"/><radialGradient id="radialGradient2478" cx="3.759" cy="11.918" r="21" fx="3.759" fy="11.918" gradientTransform="matrix(2.6662077,0.05003743,-0.03367189,1.7941821,8.402821,45.490931)" gradientUnits="userSpaceOnUse" xlink:href="#linearGradient6842"/><linearGradient id="linearGradient2481" x1="11.519" x2="11.506" y1="20" y2="37" gradientTransform="matrix(2.6666773,0,0,2.6666773,7.999743,6.854486)" gradientUnits="userSpaceOnUse" xlink:href="#linearGradient8589"/><linearGradient id="linearGradient2483" x1="20.562" x2="20.279" y1="37" y2="20" gradientTransform="matrix(2.6666773,0,0,2.6666773,7.999744,6.854537)" gradientUnits="userSpaceOnUse" xlink:href="#linearGradient6866"/><linearGradient id="linearGradient2486" x1="21.586" x2="21.687" y1="9.552" y2="18.92" gradientTransform="matrix(2.343776,0,0,3.0091139,15.749377,3.938292)" gradientUnits="userSpaceOnUse" xlink:href="#linearGradient6828"/><linearGradient id="linearGradient2488" x1="7.438" x2="7.438" y1="14.105" y2="8.937" gradientTransform="matrix(2.343776,0,0,3.0091139,15.749377,3.938292)" gradientUnits="userSpaceOnUse" xlink:href="#linearGradient2366"/><radialGradient id="radialGradient2491" cx="24" cy="41.875" r="19.125" fx="24" fy="41.875" gradientTransform="matrix(3.3464186,0,0,0.90632093,-8.314046,74.236068)" gradientUnits="userSpaceOnUse" xlink:href="#linearGradient7612"/><filter id="filter3212" width="1.297" height="1.329" x="-.148" y="-.164" color-interpolation-filters="sRGB"><feGaussianBlur id="feGaussianBlur3214" stdDeviation=".774"/></filter><linearGradient id="linearGradient3211"><stop id="stop3213" offset="0" stop-color="#fff" stop-opacity="1"/><stop id="stop3215" offset="1" stop-color="#fff" stop-opacity="0"/></linearGradient><radialGradient id="XMLID_8_" cx="102" cy="112.305" r="139.559" gradientUnits="userSpaceOnUse"><stop id="stop41" offset="0" stop-color="#b7b8b9" stop-opacity="1"/><stop id="stop47" offset=".189" stop-color="#ececec" stop-opacity="1"/><stop id="stop49" offset=".257" stop-color="#fafafa" stop-opacity="0"/><stop id="stop51" offset=".301" stop-color="#fff" stop-opacity="0"/><stop id="stop53" offset=".531" stop-color="#fafafa" stop-opacity="0"/><stop id="stop55" offset=".845" stop-color="#ebecec" stop-opacity="0"/><stop id="stop57" offset="1" stop-color="#e1e2e3" stop-opacity="0"/></radialGradient><linearGradient id="linearGradient5060"><stop id="stop5062" offset="0" stop-color="#000" stop-opacity="1"/><stop id="stop5064" offset="1" stop-color="#000" stop-opacity="0"/></linearGradient><linearGradient id="linearGradient5048"><stop id="stop5050" offset="0" stop-color="#000" stop-opacity="0"/><stop id="stop5056" offset=".5" stop-color="#000" stop-opacity="1"/><stop id="stop5052" offset="1" stop-color="#000" stop-opacity="0"/></linearGradient><linearGradient id="linearGradient2612" x1="302.857" x2="302.857" y1="366.648" y2="609.505" gradientTransform="matrix(0.04576928,0,0,0.00823529,-0.5423243,26.980549)" gradientUnits="userSpaceOnUse" xlink:href="#linearGradient5048"/><radialGradient id="radialGradient2614" cx="605.714" cy="486.648" r="117.143" fx="605.714" fy="486.648" gradientTransform="matrix(-0.01566318,0,0,0.00823529,14.389566,26.980566)" gradientUnits="userSpaceOnUse" xlink:href="#linearGradient5060"/><radialGradient id="radialGradient2616" cx="605.714" cy="486.648" r="117.143" fx="605.714" fy="486.648" gradientTransform="matrix(0.01566318,0,0,0.00823529,17.610433,26.980566)" gradientUnits="userSpaceOnUse" xlink:href="#linearGradient5060"/><linearGradient id="linearGradient2618" x1="25.132" x2="25.132" y1=".985" y2="47.013" gradientTransform="matrix(0.6571436,0,0,0.6301241,0.2285531,-0.08964783)" gradientUnits="userSpaceOnUse" xlink:href="#linearGradient3600"/><linearGradient id="linearGradient2620" x1="-51.786" x2="-51.786" y1="50.786" y2="2.906" gradientTransform="matrix(0.5306412,0,0,0.5897023,39.269605,-0.7919081)" gradientUnits="userSpaceOnUse" xlink:href="#linearGradient3104"/><radialGradient id="radialGradient2622" cx="102" cy="112.305" r="139.559" gradientTransform="matrix(0.2340426,0,0,-0.2542968,1.0212767,32.288672)" gradientUnits="userSpaceOnUse" xlink:href="#XMLID_8_"/><linearGradient id="linearGradient2624" x1="24" x2="24" y1="2" y2="46.017" gradientTransform="matrix(0.6363646,0,0,0.6279076,0.7272514,0.9302159)" gradientUnits="userSpaceOnUse" xlink:href="#linearGradient3211"/><linearGradient id="linearGradient2626" x1="32.892" x2="36.358" y1="8.059" y2="5.457" gradientTransform="matrix(0.6371285,0,0,0.6445638,0.8296804,0.7445175)" gradientUnits="userSpaceOnUse" xlink:href="#linearGradient8589"/><linearGradient id="linearGradient3066" x1="42.366" x2="42.401" y1="15.05" y2="20.018" gradientTransform="matrix(1.1612985,0,0,1.1339575,-5.8594808,8.6171654)" gradientUnits="userSpaceOnUse" xlink:href="#linearGradient4877"/><linearGradient id="linearGradient4877"><stop id="stop4879" offset="0" stop-color="#747474" stop-opacity="1"/><stop id="stop4881" offset=".453" stop-color="#fff" stop-opacity="1"/><stop id="stop4883" offset="1" stop-color="#3f3f3f" stop-opacity="1"/></linearGradient><linearGradient id="linearGradient3068" x1="43.161" x2="43.064" y1="13.901" y2="20.99" gradientTransform="matrix(1.1612985,0,0,1.1339575,-5.8594808,8.6171654)" gradientUnits="userSpaceOnUse" xlink:href="#linearGradient4909"/><linearGradient id="linearGradient4909"><stop id="stop4911" offset="0" stop-color="#747474" stop-opacity="1"/><stop id="stop4913" offset=".478" stop-color="#b0b0b0" stop-opacity="1"/><stop id="stop4915" offset="1" stop-color="#3f3f3f" stop-opacity="1"/></linearGradient><linearGradient id="linearGradient3061" x1="42.366" x2="42.401" y1="15.05" y2="20.018" gradientTransform="matrix(1.1612985,0,0,1.1339575,18.444991,11.092861)" gradientUnits="userSpaceOnUse" xlink:href="#linearGradient4877"/><linearGradient id="linearGradient3099"><stop id="stop3101" offset="0" stop-color="#747474" stop-opacity="1"/><stop id="stop3103" offset=".453" stop-color="#fff" stop-opacity="1"/><stop id="stop3105" offset="1" stop-color="#3f3f3f" stop-opacity="1"/></linearGradient><linearGradient id="linearGradient3063" x1="43.161" x2="43.064" y1="13.901" y2="20.99" gradientTransform="matrix(1.1612985,0,0,1.1339575,18.444991,11.092861)" gradientUnits="userSpaceOnUse" xlink:href="#linearGradient4909"/><linearGradient id="linearGradient3108"><stop id="stop3110" offset="0" stop-color="#747474" stop-opacity="1"/><stop id="stop3112" offset=".478" stop-color="#b0b0b0" stop-opacity="1"/><stop id="stop3114" offset="1" stop-color="#3f3f3f" stop-opacity="1"/></linearGradient><radialGradient id="radialGradient3058" cx="9" cy="15.407" r="20" fx="9" fy="15.407" gradientTransform="matrix(2.3160736,0.01430413,-0.01016957,1.6466216,12.616492,4.9772789)" gradientUnits="userSpaceOnUse" xlink:href="#linearGradient14981-4"/><linearGradient id="linearGradient14981-4"><stop id="stop14983-1" offset="0" stop-color="#628430" stop-opacity="1"/><stop id="stop14985-7" offset="1" stop-color="#364d17" stop-opacity="1"/></linearGradient><linearGradient id="linearGradient3050" x1="6.221" x2="6.238" y1="42.891" y2="39.267" gradientTransform="matrix(1.984375,0,0,1,27.398222,8.4621005)" gradientUnits="userSpaceOnUse" xlink:href="#linearGradient14780-7"/><linearGradient id="linearGradient14780-7"><stop id="stop14782-0" offset="0" stop-color="#d3ba00" stop-opacity="1"/><stop id="stop14784-4" offset="1" stop-color="#d3ba00" stop-opacity="0"/></linearGradient><linearGradient id="linearGradient3033" x1="16.965" x2="18.968" y1="20.166" y2="31.347" gradientTransform="matrix(0.934742,0,0,1.14936,24.823225,4.6160845)" gradientUnits="userSpaceOnUse" xlink:href="#linearGradient14861"/><linearGradient id="linearGradient14861"><stop id="stop14863" offset="0" stop-color="#fff" stop-opacity="1"/><stop id="stop14865" offset="1" stop-color="#fff" stop-opacity="0"/></linearGradient><linearGradient id="linearGradient3019" x1="24" x2="27" y1="19.5" y2="19.5" gradientTransform="matrix(-0.66666668,0,0,1,65.304472,8.4756955)" gradientUnits="userSpaceOnUse" xlink:href="#linearGradient6215"/><linearGradient id="linearGradient6215"><stop id="stop6217" offset="0" stop-color="#cfb900" stop-opacity="1"/><stop id="stop6219" offset=".21" stop-color="#e2d44d" stop-opacity="1"/><stop id="stop6221" offset=".84" stop-color="#9a8b00" stop-opacity="1"/><stop id="stop6223" offset="1" stop-color="#cfb900" stop-opacity="1"/></linearGradient><linearGradient id="linearGradient3010" x1="8" x2="4.328" y1="19.5" y2="19.5" gradientTransform="matrix(0,0.66666668,-1,0,53.304472,21.142363)" gradientUnits="userSpaceOnUse" xlink:href="#linearGradient6215"/><linearGradient id="linearGradient3135"><stop id="stop3137" offset="0" stop-color="#cfb900" stop-opacity="1"/><stop id="stop3139" offset=".21" stop-color="#e2d44d" stop-opacity="1"/><stop id="stop3141" offset=".84" stop-color="#9a8b00" stop-opacity="1"/><stop id="stop3143" offset="1" stop-color="#cfb900" stop-opacity="1"/></linearGradient><linearGradient id="linearGradient2985" x1="12.647" x2="4.713" y1="11.5" y2="11.5" gradientTransform="matrix(0,0.66666668,-1,0,53.304472,30.142359)" gradientUnits="userSpaceOnUse" xlink:href="#linearGradient6215"/><linearGradient id="linearGradient3146"><stop id="stop3148" offset="0" stop-color="#cfb900" stop-opacity="1"/><stop id="stop3150" offset=".21" stop-color="#e2d44d" stop-opacity="1"/><stop id="stop3152" offset=".84" stop-color="#9a8b00" stop-opacity="1"/><stop id="stop3154" offset="1" stop-color="#cfb900" stop-opacity="1"/></linearGradient><radialGradient id="radialGradient2966" cx="4" cy="9.17" r="19" fx="4" fy="9.17" gradientTransform="matrix(1.9989253,0.08328855,-0.05263072,1.2631372,20.791421,13.558953)" gradientUnits="userSpaceOnUse" xlink:href="#linearGradient7622"/><linearGradient id="linearGradient7622"><stop id="stop7624" offset="0" stop-color="#fff" stop-opacity="1"/><stop id="stop7626" offset="1" stop-color="#fff" stop-opacity="0"/></linearGradient><linearGradient id="linearGradient2960" x1="39" x2="47.5" y1="22.75" y2="22.75" gradientTransform="translate(24.304472,12.475696)" gradientUnits="userSpaceOnUse" xlink:href="#linearGradient14973"/><linearGradient id="linearGradient14973"><stop id="stop14975" offset="0" stop-color="#747474" stop-opacity="1"/><stop id="stop14977" offset=".621" stop-color="#b0b0b0" stop-opacity="1"/><stop id="stop14979" offset="1" stop-color="#3f3f3f" stop-opacity="1"/></linearGradient><linearGradient id="linearGradient2957" x1="35.934" x2="51.449" y1="22.75" y2="22.75" gradientTransform="translate(24.304472,12.475696)" gradientUnits="userSpaceOnUse" xlink:href="#linearGradient4877"/><linearGradient id="linearGradient3166"><stop id="stop3168" offset="0" stop-color="#747474" stop-opacity="1"/><stop id="stop3170" offset=".453" stop-color="#fff" stop-opacity="1"/><stop id="stop3172" offset="1" stop-color="#3f3f3f" stop-opacity="1"/></linearGradient><radialGradient id="radialGradient2951" cx="24.454" cy="46.87" r="19.614" fx="24.454" fy="46.87" gradientTransform="matrix(0.81572503,0,0,0.12745709,27.35641,48.00179)" gradientUnits="userSpaceOnUse" xlink:href="#linearGradient3437"/><linearGradient id="linearGradient3437"><stop id="stop3439" offset="0" stop-color="#000" stop-opacity="1"/><stop id="stop3441" offset="1" stop-color="#000" stop-opacity="0"/></linearGradient><linearGradient id="linearGradient3299" x1="28.739" x2="26.257" y1="144.117" y2="125.391" gradientTransform="matrix(0.31763863,0,0,0.23039255,59.930728,-16.406701)" gradientUnits="userSpaceOnUse" xlink:href="#linearGradient2372-9"/><linearGradient id="linearGradient2372-9"><stop id="stop2374-9" offset="0" stop-color="#fff" stop-opacity="1"/><stop id="stop2376-4" offset="1" stop-color="#fff" stop-opacity=".345"/></linearGradient><radialGradient id="radialGradient3296" cx="17.059" cy="41.059" r="5.738" fx="14.758" fy="37.841" gradientTransform="matrix(0.7193066,-0.11623586,0.01570024,0.6700801,51.35198,7.3395182)" gradientUnits="userSpaceOnUse" xlink:href="#linearGradient3668-5"/><linearGradient id="linearGradient3668-5"><stop id="stop3670-7" offset="0" stop-color="#fff" stop-opacity="1"/><stop id="stop3672-4" offset="1" stop-color="#fff" stop-opacity="0"/></linearGradient><linearGradient id="linearGradient3293" x1="28.503" x2="26.257" y1="137.539" y2="125.391" gradientTransform="matrix(0.23013199,0,0,0.23039255,49.053993,-14.302877)" gradientUnits="userSpaceOnUse" xlink:href="#linearGradient2372-9"/><linearGradient id="linearGradient3187"><stop id="stop3189" offset="0" stop-color="#fff" stop-opacity="1"/><stop id="stop3191" offset="1" stop-color="#fff" stop-opacity=".345"/></linearGradient><radialGradient id="radialGradient3290" cx="17.059" cy="41.059" r="5.738" fx="14.688" fy="37.456" gradientTransform="matrix(0.68315419,-0.12185712,0.02398557,0.64784268,39.103121,10.305614)" gradientUnits="userSpaceOnUse" xlink:href="#linearGradient7067-5"/><linearGradient id="linearGradient7067-5"><stop id="stop7069-9" offset="0" stop-color="#fff" stop-opacity="1"/><stop id="stop7071-3" offset="1" stop-color="#fff" stop-opacity="0"/></linearGradient><linearGradient id="linearGradient3030" x1="8" x2="4.328" y1="19.5" y2="19.5" gradientTransform="matrix(0.66666668,0,0,1,26.971139,8.4756955)" gradientUnits="userSpaceOnUse" xlink:href="#linearGradient6215"/><linearGradient id="linearGradient3198"><stop id="stop3200" offset="0" stop-color="#cfb900" stop-opacity="1"/><stop id="stop3202" offset=".21" stop-color="#e2d44d" stop-opacity="1"/><stop id="stop3204" offset=".84" stop-color="#9a8b00" stop-opacity="1"/><stop id="stop3206" offset="1" stop-color="#cfb900" stop-opacity="1"/></linearGradient><linearGradient id="linearGradient3542" x1="42.366" x2="42.401" y1="15.05" y2="20.018" gradientTransform="matrix(1.1612985,0,0,1.1339575,18.444991,18.092861)" gradientUnits="userSpaceOnUse" xlink:href="#linearGradient4877"/><linearGradient id="linearGradient3544" x1="43.161" x2="43.064" y1="13.901" y2="20.99" gradientTransform="matrix(1.1612985,0,0,1.1339575,18.444991,18.092861)" gradientUnits="userSpaceOnUse" xlink:href="#linearGradient4909"/><linearGradient id="linearGradient3546" x1="42.366" x2="42.401" y1="15.05" y2="20.018" gradientTransform="matrix(1.1612985,0,0,1.1339575,18.444991,11.092861)" gradientUnits="userSpaceOnUse" xlink:href="#linearGradient4877"/><linearGradient id="linearGradient3548" x1="43.161" x2="43.064" y1="13.901" y2="20.99" gradientTransform="matrix(1.1612985,0,0,1.1339575,18.444991,11.092861)" gradientUnits="userSpaceOnUse" xlink:href="#linearGradient4909"/><radialGradient id="radialGradient3550" cx="9" cy="15.407" r="20" fx="9" fy="15.407" gradientTransform="matrix(2.3160736,0.01430413,-0.01016957,1.6466216,12.616492,4.9772789)" gradientUnits="userSpaceOnUse" xlink:href="#linearGradient14981-4"/><linearGradient id="linearGradient3552" x1="6.221" x2="6.238" y1="42.891" y2="39.267" gradientTransform="matrix(1.984375,0,0,1,27.398222,8.4621005)" gradientUnits="userSpaceOnUse" xlink:href="#linearGradient14780-7"/><linearGradient id="linearGradient3554" x1="16.965" x2="18.968" y1="20.166" y2="31.347" gradientTransform="matrix(0.934742,0,0,1.14936,24.823225,4.6160845)" gradientUnits="userSpaceOnUse" xlink:href="#linearGradient14861"/><linearGradient id="linearGradient3556" x1="24" x2="27" y1="19.5" y2="19.5" gradientTransform="matrix(-0.66666668,0,0,1,65.304472,8.4756955)" gradientUnits="userSpaceOnUse" xlink:href="#linearGradient6215"/><linearGradient id="linearGradient3558" x1="8" x2="4.328" y1="19.5" y2="19.5" gradientTransform="matrix(0,0.66666668,-1,0,53.304472,21.142363)" gradientUnits="userSpaceOnUse" xlink:href="#linearGradient6215"/><linearGradient id="linearGradient3560" x1="12.647" x2="4.713" y1="11.5" y2="11.5" gradientTransform="matrix(0,0.66666668,-1,0,53.304472,30.142359)" gradientUnits="userSpaceOnUse" xlink:href="#linearGradient6215"/><radialGradient id="radialGradient3562" cx="4" cy="9.17" r="19" fx="4" fy="9.17" gradientTransform="matrix(1.9989253,0.08328855,-0.05263072,1.2631372,20.791421,13.558953)" gradientUnits="userSpaceOnUse" xlink:href="#linearGradient7622"/><linearGradient id="linearGradient3564" x1="39" x2="47.5" y1="22.75" y2="22.75" gradientTransform="translate(24.304472,12.475696)" gradientUnits="userSpaceOnUse" xlink:href="#linearGradient14973"/><linearGradient id="linearGradient3566" x1="35.934" x2="51.449" y1="22.75" y2="22.75" gradientTransform="translate(24.304472,12.475696)" gradientUnits="userSpaceOnUse" xlink:href="#linearGradient4877"/><radialGradient id="radialGradient3568" cx="24.454" cy="46.87" r="19.614" fx="24.454" fy="46.87" gradientTransform="matrix(0.81572503,0,0,0.12745709,27.35641,48.00179)" gradientUnits="userSpaceOnUse" xlink:href="#linearGradient3437"/><linearGradient id="linearGradient3570" x1="28.739" x2="26.257" y1="144.117" y2="125.391" gradientTransform="matrix(0.31763863,0,0,0.23039255,59.930728,-16.406701)" gradientUnits="userSpaceOnUse" xlink:href="#linearGradient2372-9"/><radialGradient id="radialGradient3572" cx="17.059" cy="41.059" r="5.738" fx="14.758" fy="37.841" gradientTransform="matrix(0.7193066,-0.11623586,0.01570024,0.6700801,51.35198,7.3395182)" gradientUnits="userSpaceOnUse" xlink:href="#linearGradient3668-5"/><linearGradient id="linearGradient3574" x1="28.503" x2="26.257" y1="137.539" y2="125.391" gradientTransform="matrix(0.23013199,0,0,0.23039255,49.053993,-14.302877)" gradientUnits="userSpaceOnUse" xlink:href="#linearGradient2372-9"/><radialGradient id="radialGradient3576" cx="17.059" cy="41.059" r="5.738" fx="14.688" fy="37.456" gradientTransform="matrix(0.68315419,-0.12185712,0.02398557,0.64784268,39.103121,10.305614)" gradientUnits="userSpaceOnUse" xlink:href="#linearGradient7067-5"/><linearGradient id="linearGradient3578" x1="8" x2="4.328" y1="19.5" y2="19.5" gradientTransform="matrix(0.66666668,0,0,1,26.971139,8.4756955)" gradientUnits="userSpaceOnUse" xlink:href="#linearGradient6215"/></defs><path id="path3087" fill="url(#radialGradient2491)" fill-opacity="1" fill-rule="nonzero" stroke="none" stroke-width="4" d="m 136.00026,112.18829 c 0,9.57297 -28.65389,17.3334 -64.000259,17.3334 -35.346367,0 -64.000257,-7.76043 -64.000257,-17.3334 0,-9.57298 28.65389,-17.333409 64.000257,-17.333409 35.346359,0 64.000259,7.760429 64.000259,17.333409 l 0,0 z" display="inline" opacity=".5" overflow="visible" visibility="visible" style="marker:none"/><rect id="rect2315" width="77.345" height="58.678" x="33.328" y="29.516" fill="url(#linearGradient2486)" fill-opacity="1" stroke="url(#linearGradient2488)" stroke-dasharray="none" stroke-linecap="round" stroke-linejoin="round" stroke-miterlimit="4" stroke-opacity="1" stroke-width="2.656" display="inline" rx="1.503" ry="1.93"/><g id="layer1" transform="matrix(2.6666773,0,0,2.6666773,29.333198,6.854536)"><rect id="rect2879" width="22.1" height="2" x="4.95" y="30" fill="url(#linearGradient2612)" fill-opacity="1" fill-rule="nonzero" stroke="none" stroke-width="1" display="inline" opacity=".15" overflow="visible" visibility="visible" style="marker:none"/><path id="path2881" fill="url(#radialGradient2614)" fill-opacity="1" fill-rule="nonzero" stroke="none" stroke-width="1" d="m 4.9499887,30.000087 c 0,0 0,1.99989 0,1.99989 -0.806615,0.0038 -1.950002,-0.448074 -1.950002,-1.000074 0,-0.552 0.900121,-0.999816 1.950002,-0.999816 z" display="inline" opacity=".15" overflow="visible" visibility="visible" style="marker:none"/><path id="path2883" fill="url(#radialGradient2616)" fill-opacity="1" fill-rule="nonzero" stroke="none" stroke-width="1" d="m 27.050011,30.000087 c 0,0 0,1.99989 0,1.99989 0.806614,0.0038 1.950002,-0.448074 1.950002,-1.000074 0,-0.552 -0.900122,-0.999816 -1.950002,-0.999816 z" display="inline" opacity=".15" overflow="visible" visibility="visible" style="marker:none"/><path id="path4160" fill="url(#linearGradient2618)" fill-opacity="1" stroke="url(#linearGradient2620)" stroke-dasharray="none" stroke-dashoffset="0" stroke-linecap="butt" stroke-linejoin="round" stroke-miterlimit="4" stroke-opacity="1" stroke-width="1" d="m 4.499961,1.4999609 c 5.2704843,0 10.540969,0 15.811458,0 0.924556,0.3128002 5.891591,3.8764242 7.188621,6.3438858 0,7.5520643 0,15.1041283 0,22.6561933 -7.666694,0 -15.333386,0 -23.000079,0 0,-9.666694 0,-19.333388 0,-29.0000791 z" display="inline"/><path id="path4191" fill="url(#radialGradient2622)" fill-opacity="1" d="M 5.2340427,30 C 5.1050853,30 5,29.885821 5,29.745703 L 5,2.2816602 C 5,2.141289 5.1050853,2.0273644 5.2340427,2.0273644 10.076044,2.0976535 15.441839,1.9222203 20.277954,2.0448649 L 26.931426,7.8143805 27,29.745703 C 27,29.885821 26.895148,30 26.765957,30 L 5.2340427,30 z"/><path id="path2435" fill="none" stroke="url(#linearGradient2624)" stroke-dasharray="none" stroke-dashoffset="0" stroke-linecap="butt" stroke-linejoin="miter" stroke-miterlimit="4" stroke-opacity="1" stroke-width="1" d="m 26.50004,8.1389757 c 0,7.0312323 0,14.3298293 0,21.3610643 -7.000025,0 -14.000051,0 -21.0000789,0 0,-9.000029 0,-18.000054 0,-27.0000792 4.8121839,0 9.7391359,0 14.5513199,0" display="inline" opacity=".6"/><path id="path2600" fill="#000" fill-opacity="1" fill-rule="evenodd" stroke="none" d="m 28.617256,0.92125832 c 4.282522,0 2.15325,8.48317128 2.15325,8.48317128 0,0 10.357642,-1.8023467 10.357642,2.8187444 0,-2.6097233 -11.302304,-10.7285956 -12.510892,-11.30191568 z" display="inline" filter="url(#filter3212)" opacity=".4" transform="matrix(0.6385981,0,0,0.6193639,0.7250758,1.4294058)"/><path id="path4474" fill="url(#linearGradient2626)" fill-opacity="1" fill-rule="evenodd" stroke="none" d="m 19.000002,2.0000004 c 2.034888,0 1.491612,4.7454907 1.491612,4.7454907 0,0 6.497818,-0.6076276 6.497818,2.2545089 0,-0.6973655 0.05487,-1.196763 -0.08543,-1.4143758 -1.007905,-1.5633861 -5.36136,-5.0715999 -6.93345,-5.5314084 -0.117643,-0.034408 -0.3785,-0.054215 -0.970551,-0.054215 z" display="inline"/></g><path id="rect2313" fill="url(#linearGradient2481)" fill-opacity="1" stroke="url(#linearGradient2483)" stroke-linecap="round" stroke-linejoin="round" stroke-miterlimit="4" stroke-opacity="1" stroke-width="2.667" d="m 20.210368,61.52137 13.12281,0 2.666677,2.666677 72.000285,0 2.66668,-2.666677 13.12281,0 c 3.07133,0 5.54393,2.472593 5.54393,5.543931 l 0,37.122909 -114.667123,0 0,-37.122909 c 0,-3.071338 2.472593,-5.543931 5.543931,-5.543931 l 0,0 z"/><path id="rect2374" fill="none" stroke="url(#radialGradient2478)" stroke-linecap="round" stroke-linejoin="miter" stroke-miterlimit="4" stroke-opacity="1" stroke-width="2.667" d="m 19.999791,64.188047 104.000419,0 c 1.38351,0 2.66667,1.28316 2.66667,2.666677 l 0,34.666806 -109.333766,0 0,-34.666806 c 0,-1.383517 1.283161,-2.666677 2.666677,-2.666677 l 0,0 z" display="inline" opacity=".9"/><rect id="rect2319" width="72" height="29.333" x="36" y="64.188" fill="url(#linearGradient2464)" fill-opacity="1" stroke="url(#linearGradient2466)" stroke-dasharray="none" stroke-linecap="round" stroke-linejoin="miter" stroke-miterlimit="4" stroke-opacity="1" stroke-width="2.667"/><path id="rect6333" fill="url(#linearGradient2459)" fill-opacity="1" stroke="url(#linearGradient2461)" stroke-dasharray="none" stroke-linecap="square" stroke-linejoin="miter" stroke-miterlimit="4" stroke-opacity="1" stroke-width="2.667" d="m 17.333115,104.18826 c 0.213571,2.76403 -0.553011,5.73836 0.676348,8.2992 2.306185,3.25025 6.58689,2.18151 9.990361,2.3675 0.06142,1.91867 -0.569236,4.88063 2.060657,5.28874 27.781648,0.10408 55.571531,0.0149 83.356349,0.0446 2.86727,0.0847 2.67603,-3.09871 2.58334,-5.11886 0.93642,-0.49762 2.79443,-0.0737 4.08763,-0.21451 3.1998,0.4349 7.11229,-1.75955 6.57908,-5.40838 0,-1.75277 0,-3.50555 0,-5.25833 -36.444588,0 -72.889175,0 -109.333765,0 l 0,2e-5 z"/><rect id="rect2459" width="66.667" height="24" x="38.667" y="66.855" fill="none" stroke="url(#radialGradient2456)" stroke-dasharray="none" stroke-linecap="round" stroke-linejoin="miter" stroke-miterlimit="4" stroke-opacity="1" stroke-width="2.667" display="inline" opacity=".3"/><path id="path2726" fill="none" stroke="url(#linearGradient2453)" stroke-dasharray="none" stroke-linecap="round" stroke-linejoin="round" stroke-miterlimit="4" stroke-opacity="1" stroke-width="2" d="m 121.66796,93.522161 c 0,1.657286 -1.34343,3.000788 -3.00064,3.000788 -1.65721,0 -3.00064,-1.343502 -3.00064,-3.000788 0,-1.65729 1.34343,-3.000788 3.00064,-3.000788 1.65721,0 3.00064,1.343498 3.00064,3.000788 z"/><path id="path2764" fill="url(#radialGradient2450)" fill-opacity="1" stroke="none" d="m 120.80019,93.52155 c 0.001,1.178943 -0.9544,2.135214 -2.13334,2.135214 -1.17895,0 -2.13438,-0.956271 -2.13334,-2.135214 -0.001,-1.178943 0.95439,-2.135214 2.13334,-2.135214 1.17894,0 2.13437,0.956271 2.13334,2.135214 l 0,0 z"/><path id="rect6331" fill="url(#linearGradient2447)" fill-opacity="1" stroke="none" d="m 114.66683,108.18827 0,9.33337 c 0,0.73867 -0.59467,1.33334 -1.33333,1.33334 l -82.666999,0 c -0.73867,0 -1.333339,-0.59467 -1.333339,-1.33334 l 0,-9.33337 85.333668,0 z"/><rect id="rect6329" width="74.667" height="5.333" x="34.667" y="108.188" fill="url(#linearGradient2444)" fill-opacity="1" stroke="none"/><g id="g3506" transform="matrix(1.4488354,0,0,1.4488354,-27.79607,48.030146)"><rect id="rect4923" width="5.5" height="4.5" x="63.554" y="35.726" fill="url(#linearGradient3542)" fill-opacity="1" fill-rule="nonzero" stroke="url(#linearGradient3544)" stroke-dasharray="none" stroke-dashoffset="0" stroke-linecap="round" stroke-linejoin="round" stroke-miterlimit="4" stroke-opacity="1" stroke-width=".5" color="#000" display="block" overflow="visible" rx="1" ry="1" visibility="visible" style="marker:none"/><rect id="rect15011" width="5.5" height="4.5" x="63.554" y="28.726" fill="url(#linearGradient3546)" fill-opacity="1" fill-rule="nonzero" stroke="url(#linearGradient3548)" stroke-dasharray="none" stroke-dashoffset="0" stroke-linecap="round" stroke-linejoin="round" stroke-miterlimit="4" stroke-opacity="1" stroke-width=".5" color="#000" display="block" overflow="visible" rx="1" ry="1" visibility="visible" style="marker:none"/><path id="rect14772" fill="url(#radialGradient3550)" fill-opacity="1" fill-rule="nonzero" stroke="#28390d" stroke-dasharray="none" stroke-dashoffset="0" stroke-linecap="butt" stroke-linejoin="miter" stroke-miterlimit="4" stroke-opacity="1" stroke-width="1" d="m 25.805505,22.10594 0.0039,26.719635 c 0,0.07888 0.0888,0.150207 0.186781,0.150207 l 10.8116,0.01563 -0.0039,4.853272 c 0,0.07127 0.0224,0.126335 0.124282,0.12677 l 18.755678,-0.0078 c 0.09242,-0.0037 0.124281,-0.06374 0.124281,-0.12677 l 0.0039,-4.868897 8.992438,0.0078 0,-26.996616 -38.874686,0 c -0.07845,0.0043 -0.132094,0.05255 -0.124282,0.126769 z" color="#000" display="block" overflow="visible" visibility="visible" style="marker:none"/><path id="path14957" fill="none" stroke="#305526" stroke-dasharray="none" stroke-dashoffset="0" stroke-linecap="butt" stroke-linejoin="miter" stroke-miterlimit="4" stroke-opacity="1" stroke-width=".5" d="m 49.304472,31.947928 0.06435,0.530944 2.424421,1.892154 0,4.603776 -17.058951,0 0,3.933282" color="#000" display="block" overflow="visible" visibility="visible" style="marker:none"/><path id="path14826" fill="none" stroke="#305526" stroke-dasharray="none" stroke-dashoffset="0" stroke-linecap="butt" stroke-linejoin="miter" stroke-miterlimit="4" stroke-opacity="1" stroke-width=".5" d="m 39.808914,51.436706 0.05485,-5.644978 1.90096,-2.791366 14.009422,0 2.044194,-2.024489 0.04419,-3.033634 -8.043116,-5.961334 8.110058,0.04703 -0.1875,-3.989742 -8.9375,0" color="#000" display="block" overflow="visible" visibility="visible" style="marker:none"/><path id="path14842" fill="none" stroke="#305526" stroke-dasharray="none" stroke-dashoffset="0" stroke-linecap="butt" stroke-linejoin="miter" stroke-miterlimit="4" stroke-opacity="1" stroke-width=".5" d="m 43.804472,51.436705 0.05485,-5.780683 1.900958,-2.666463" color="#000" display="block" overflow="visible" visibility="visible" style="marker:none"/><path id="path14844" fill="none" stroke="#305526" stroke-dasharray="none" stroke-dashoffset="0" stroke-linecap="butt" stroke-linejoin="miter" stroke-miterlimit="4" stroke-opacity="1" stroke-width=".5" d="m 46.804472,51.436705 0.05485,-5.780683 1.900958,-2.666463" color="#000" display="block" overflow="visible" visibility="visible" style="marker:none"/><path id="path14846" fill="none" stroke="#305526" stroke-dasharray="none" stroke-dashoffset="0" stroke-linecap="butt" stroke-linejoin="miter" stroke-miterlimit="4" stroke-opacity="1" stroke-width=".5" d="m 49.848668,51.436705 0.05485,-5.780683 1.900958,-2.666463" color="#000" display="block" overflow="visible" visibility="visible" style="marker:none"/><path id="path14796" fill="url(#linearGradient3552)" fill-opacity="1" fill-rule="nonzero" stroke="none" stroke-width="1" d="m 40.023222,48.069445 c -0.565089,0.124229 -0.71875,0.663875 -0.71875,0.90625 l 0,4.40625 2,0 0,-4.40625 c 0,-0.277 -0.200328,-0.90625 -1,-0.90625 -0.09801,0 -0.200523,-0.01775 -0.28125,0 z m 3,0 c -0.565089,0.124229 -0.71875,0.663875 -0.71875,0.90625 l 0,4.40625 2,0 0,-4.40625 c 0,-0.277 -0.200328,-0.90625 -1,-0.90625 -0.09801,0 -0.200523,-0.01775 -0.28125,0 z m 3.03125,0 c -0.565089,0.124229 -0.75,0.663875 -0.75,0.90625 l 0,4.40625 2,0 0,-4.40625 c 0,-0.277 -0.200328,-0.90625 -1,-0.90625 -0.09801,0 -0.169273,-0.01775 -0.25,0 z m 3,0 c -0.565089,0.124229 -0.75,0.663875 -0.75,0.90625 l 0,4.40625 2,0 0,-4.40625 c 0,-0.277 -0.200328,-0.90625 -1,-0.90625 -0.09801,0 -0.169273,-0.01775 -0.25,0 z m 3,0 c -0.565089,0.124229 -0.75,0.663875 -0.75,0.90625 l 0,4.40625 2,0 0,-4.40625 c 0,-0.277 -0.200328,-0.90625 -1,-0.90625 -0.09801,0 -0.169273,-0.01775 -0.25,0 z" color="#000" display="block" overflow="visible" visibility="visible" style="marker:none"/><path id="path14848" fill="none" stroke="#305526" stroke-dasharray="none" stroke-dashoffset="0" stroke-linecap="butt" stroke-linejoin="miter" stroke-miterlimit="4" stroke-opacity="1" stroke-width=".5" d="m 52.804472,51.436705 0.05485,-5.780683 1.900958,-2.666463" color="#000" display="block" overflow="visible" visibility="visible" style="marker:none"/><path id="path15029" fill="none" stroke="#305526" stroke-dasharray="none" stroke-dashoffset="0" stroke-linecap="butt" stroke-linejoin="miter" stroke-miterlimit="4" stroke-opacity="1" stroke-width=".5" d="m 30.804472,27.975695 -2.96875,1.0625 0,1.875 0,10.0625 7,0.0625" color="#000" display="block" overflow="visible" visibility="visible" style="marker:none"/><rect id="rect14857" width="16.056" height="7.93" x="31.777" y="25.979" fill="#555753" fill-opacity="1" fill-rule="nonzero" stroke="#2e3436" stroke-dasharray="none" stroke-dashoffset="0" stroke-linecap="butt" stroke-linejoin="miter" stroke-miterlimit="4" stroke-opacity="1" stroke-width="1" color="#000" display="block" overflow="visible" rx=".942" ry=".942" visibility="visible" style="marker:none"/><rect id="rect14859" width="14.116" height="5.882" x="32.721" y="26.987" fill="none" stroke="url(#linearGradient3554)" stroke-dasharray="none" stroke-dashoffset="0" stroke-linecap="butt" stroke-linejoin="miter" stroke-miterlimit="4" stroke-opacity="1" stroke-width="1" color="#000" display="block" opacity=".17" overflow="visible" rx="0" ry="0" visibility="visible" style="marker:none"/><path id="path15031" fill="none" stroke="#305526" stroke-dasharray="none" stroke-dashoffset="0" stroke-linecap="butt" stroke-linejoin="miter" stroke-miterlimit="4" stroke-opacity="1" stroke-width=".5" d="m 30.804472,29.975695 -2.984375,1.0625" color="#000" display="block" overflow="visible" visibility="visible" style="marker:none"/><path id="path15033" fill="#98a332" fill-opacity="1" stroke="#305526" stroke-dasharray="none" stroke-dashoffset="0" stroke-linecap="butt" stroke-linejoin="miter" stroke-miterlimit="4" stroke-opacity="1" stroke-width=".5" d="m 30.804472,31.975695 -3,1.5" color="#000" display="block" overflow="visible" visibility="visible" style="marker:none"/><path id="rect14875" fill="url(#linearGradient3556)" fill-opacity="1" fill-rule="nonzero" stroke="none" stroke-width="1" d="m 47.304472,27.475695 0,1 2,0 0,-1 -2,0 z m 0,2 0,1 2,0 0,-1 -2,0 z m 0,2 0,1 2,0 0,-1 -2,0 z" color="#000" display="block" overflow="visible" visibility="visible" style="marker:none"/><path id="rect14901" fill="url(#linearGradient3558)" fill-opacity="1" fill-rule="nonzero" stroke="none" stroke-width="1" d="m 33.304472,24.475695 0,2 1,0 0,-2 -1,0 z m 2,0 0,2 1,0 0,-2 -1,0 z m 2,0 0,2 1,0 0,-2 -1,0 z m 2,0 0,2 1,0 0,-2 -1,0 z m 2,0 0,2 1,0 0,-2 -1,0 z m 2,0 0,2 1,0 0,-2 -1,0 z m 2,0 0,2 1,0 0,-2 -1,0 z" color="#000" display="block" overflow="visible" visibility="visible" style="marker:none"/><path id="path14959" fill="none" stroke="#305526" stroke-dasharray="none" stroke-dashoffset="0" stroke-linecap="butt" stroke-linejoin="miter" stroke-miterlimit="4" stroke-opacity="1" stroke-width=".5" d="m 33.762025,35.235695 1.06066,3.739107 1.944544,0 -1.06066,-3.739107" color="#000" display="block" overflow="visible" visibility="visible" style="marker:none"/><path id="path14961" fill="none" stroke="#305526" stroke-dasharray="none" stroke-dashoffset="0" stroke-linecap="butt" stroke-linejoin="miter" stroke-miterlimit="4" stroke-opacity="1" stroke-width=".5" d="m 37.762025,35.235695 1.06066,3.739107 1.944544,0 -1.06066,-3.739107" color="#000" display="block" overflow="visible" visibility="visible" style="marker:none"/><path id="path14963" fill="none" stroke="#305526" stroke-dasharray="none" stroke-dashoffset="0" stroke-linecap="butt" stroke-linejoin="miter" stroke-miterlimit="4" stroke-opacity="1" stroke-width=".5" d="m 41.762025,35.335695 1.06066,3.639107 1.944544,0 -1.06066,-3.639107" color="#000" display="block" overflow="visible" visibility="visible" style="marker:none"/><path id="path14965" fill="none" stroke="#305526" stroke-dasharray="none" stroke-dashoffset="0" stroke-linecap="butt" stroke-linejoin="miter" stroke-miterlimit="4" stroke-opacity="1" stroke-width=".5" d="m 45.762025,35.157695 1.06066,3.817107" color="#000" display="block" overflow="visible" visibility="visible" style="marker:none"/><path id="rect14929" fill="url(#linearGradient3560)" fill-opacity="1" fill-rule="nonzero" stroke="none" stroke-width="1" d="m 33.304472,33.475695 0,2 1,0 0,-2 -1,0 z m 2,0 0,2 1,0 0,-2 -1,0 z m 2,0 0,2 1,0 0,-2 -1,0 z m 2,0 0,2 1,0 0,-2 -1,0 z m 2,0 0,2 1,0 0,-2 -1,0 z m 2,0 0,2 1,0 0,-2 -1,0 z m 2,0 0,2 1,0 0,-2 -1,0 z" color="#000" display="block" overflow="visible" visibility="visible" style="marker:none"/><path id="path14989" fill="none" stroke="url(#radialGradient3562)" stroke-dasharray="none" stroke-dashoffset="0" stroke-linecap="butt" stroke-linejoin="miter" stroke-miterlimit="4" stroke-opacity="1" stroke-width="1" d="m 26.805703,47.977314 10.998113,-5.6e-5 0.01105,4.98312 17.000996,-0.0024 -0.0029,-4.987296 8.99151,0.0027 c 0.004,-4.09e-4 0,-24.994109 0,-24.994109 l -36.995343,-0.0022 c 0.004,8.338625 -0.0035,25.00025 -0.0035,25.00025 l 7.4e-5,-9e-6 z" color="#000" display="block" opacity=".4" overflow="visible" visibility="visible" style="marker:none"/><path id="path15001" fill="none" stroke="url(#linearGradient3564)" stroke-dasharray="none" stroke-dashoffset="0" stroke-linecap="square" stroke-linejoin="round" stroke-miterlimit="4" stroke-opacity="1" stroke-width="3" d="m 64.804161,54.475695 0,-38.499999 5.5,0" color="#000" display="block" overflow="visible" visibility="visible" style="marker:none"/><path id="path15003" fill="none" stroke="url(#linearGradient3566)" stroke-dasharray="none" stroke-dashoffset="0" stroke-linecap="square" stroke-linejoin="round" stroke-miterlimit="4" stroke-opacity="1" stroke-width="2" d="m 64.804161,54.475695 0,-38.499999 5.5,0" color="#000" display="block" overflow="visible" visibility="visible" style="marker:none"/><path id="path15005" fill="#477ec5" fill-opacity="1" fill-rule="nonzero" stroke="#334560" stroke-dasharray="none" stroke-dashoffset="0" stroke-linecap="round" stroke-linejoin="round" stroke-miterlimit="4" stroke-opacity="1" stroke-width=".5" d="m 59.790171,27.475702 a 1.4856964,1.4856964 0 1 1 -2.971392,0 1.4856964,1.4856964 0 1 1 2.971392,0 z" color="#000" display="block" overflow="visible" visibility="visible" style="marker:none"/><path id="path15007" fill="#477ec5" fill-opacity="1" fill-rule="nonzero" stroke="#334560" stroke-dasharray="none" stroke-dashoffset="0" stroke-linecap="round" stroke-linejoin="round" stroke-miterlimit="4" stroke-opacity="1" stroke-width=".5" d="m 59.790171,32.461392 a 1.4856964,1.4856964 0 1 1 -2.971392,0 1.4856964,1.4856964 0 1 1 2.971392,0 z" color="#000" display="block" overflow="visible" visibility="visible" style="marker:none"/><path id="path15009" fill="#477ec5" fill-opacity="1" fill-rule="nonzero" stroke="#334560" stroke-dasharray="none" stroke-dashoffset="0" stroke-linecap="round" stroke-linejoin="round" stroke-miterlimit="4" stroke-opacity="1" stroke-width=".5" d="m 59.790171,37.489999 a 1.4856964,1.4856964 0 1 1 -2.971392,0 1.4856964,1.4856964 0 1 1 2.971392,0 z" color="#000" display="block" overflow="visible" visibility="visible" style="marker:none"/><path id="path2983" fill="url(#radialGradient3568)" fill-opacity="1" stroke="none" d="m 63.304472,53.975694 c 0,1.380714 -7.163442,2.500001 -16,2.500001 -8.836561,0 -16,-1.119287 -16,-2.500001 0,-1.380712 7.163439,-2.499999 16,-2.499999 8.836558,0 16,1.119287 16,2.499999 z" opacity=".45"/><path id="path3996-9" fill="url(#linearGradient3570)" fill-opacity="1" fill-rule="evenodd" stroke="none" d="m 67.312482,29.123711 0.04234,-11.736538 c 0.44614,-0.0578 0.0685,-0.0093 0.670099,-0.09587 0.0081,2.192269 0.01129,3.668836 0.01129,11.948444 0,0.06161 -0.259835,-0.03092 -0.723739,-0.116032 l 3e-6,0 z" opacity=".4"/><path id="path2716-1" fill="url(#radialGradient3572)" fill-opacity="1" stroke="none" d="m 68.394858,32.169156 c 0,2.091875 -1.848044,4.101181 -4.127723,4.487912 -2.279675,0.38673 -4.127719,-0.995562 -4.127719,-3.087436 0,-2.091875 1.848044,-4.101183 4.127719,-4.487914 2.279679,-0.38673 4.127723,0.995563 4.127723,3.087438 z" opacity=".6"/><path id="path2720-9" fill="url(#linearGradient3574)" fill-opacity="1" fill-rule="evenodd" stroke="none" d="m 54.304472,31.333872 0,-15.962575 c 0,0 0.08338,-0.8857 0.837768,-0.888753 0.06556,0.113136 12.727381,-2.047348 12.727381,-2.047348 0,0 0.484543,1.256637 -4.991113,2.0405 -7.793798,1.115713 -7.574036,1.698241 -7.574036,2.5 0,2.364916 0,6.310489 0,14.921499 -0.167574,-0.142514 -0.663902,-0.478212 -1,-0.563323 l 0,0 z" opacity=".4"/><path id="path2712-6" fill="url(#radialGradient3576)" fill-opacity="1" stroke="none" d="m 55.662007,34.149267 c 0,2.0233 -1.75516,3.96674 -3.92026,4.340793 -2.165102,0.374054 -3.920262,-0.962926 -3.920262,-2.986227 0,-2.023301 1.75516,-3.966741 3.920262,-4.340795 2.1651,-0.374053 3.92026,0.962927 3.92026,2.986229 z" opacity=".6"/><path id="rect14869" fill="url(#linearGradient3578)" fill-opacity="1" fill-rule="nonzero" stroke="none" stroke-width="1" d="m 30.304472,27.475695 0,1 2,0 0,-1 -2,0 z m 0,2 0,1 2,0 0,-1 -2,0 z m 0,2 0,1 2,0 0,-1 -2,0 z" color="#000" display="block" overflow="visible" visibility="visible" style="marker:none"/></g></svg>