<svg xmlns="http://www.w3.org/2000/svg" xmlns:svg="http://www.w3.org/2000/svg" xmlns:xlink="http://www.w3.org/1999/xlink" id="svg2" width="392.433" height="293.043" version="1.1"><defs id="defs4"><linearGradient id="linearGradient3902"><stop id="stop3904" offset="0" stop-color="red" stop-opacity="1"/><stop id="stop3906" offset="1" stop-color="#a20000" stop-opacity="1"/></linearGradient><linearGradient id="linearGradient3890"><stop id="stop3892" offset="0" stop-color="red" stop-opacity="1"/><stop id="stop3894" offset="1" stop-color="#ff3537" stop-opacity="1"/></linearGradient><linearGradient id="linearGradient3874"><stop id="stop3876" offset="0" stop-color="green" stop-opacity="1"/><stop id="stop3878" offset="1" stop-color="#005900" stop-opacity="1"/></linearGradient><linearGradient id="linearGradient3864"><stop id="stop3866" offset="0" stop-color="#64b668" stop-opacity="1"/><stop id="stop3868" offset="1" stop-color="#008900" stop-opacity="1"/></linearGradient><linearGradient id="linearGradient3832"><stop id="stop3834" offset="0" stop-color="green" stop-opacity="1"/><stop id="stop3836" offset="1" stop-color="#4dc149" stop-opacity="1"/></linearGradient><linearGradient id="linearGradient3838" x1="634.973" x2="389.524" y1="631.639" y2="484.486" gradientUnits="userSpaceOnUse" xlink:href="#linearGradient3832"/><filter id="filter3848" color-interpolation-filters="sRGB"><feGaussianBlur id="feGaussianBlur3850" stdDeviation=".82"/></filter><filter id="filter3852" color-interpolation-filters="sRGB"><feGaussianBlur id="feGaussianBlur3854" stdDeviation="1.404"/></filter><radialGradient id="radialGradient3872" cx="539.688" cy="573.476" r="92.316" fx="539.688" fy="573.476" gradientTransform="matrix(0.59830496,1.4588801,-1.4016737,0.57484394,1052.0103,-556.35482)" gradientUnits="userSpaceOnUse" xlink:href="#linearGradient3864"/><linearGradient id="linearGradient3880" x1="437.496" x2="441.787" y1="567.07" y2="623.334" gradientTransform="matrix(1.01,0,0,1.01,-4.45,-5.9654163)" gradientUnits="userSpaceOnUse" xlink:href="#linearGradient3874"/><filter id="filter3882" color-interpolation-filters="sRGB"><feGaussianBlur id="feGaussianBlur3884" stdDeviation=".612"/></filter><filter id="filter3886" color-interpolation-filters="sRGB"><feGaussianBlur id="feGaussianBlur3888" stdDeviation=".208"/></filter><linearGradient id="linearGradient3896" x1="503.685" x2="382.355" y1="665.509" y2="536.706" gradientUnits="userSpaceOnUse" xlink:href="#linearGradient3890"/><filter id="filter3898" color-interpolation-filters="sRGB"><feGaussianBlur id="feGaussianBlur3900" stdDeviation=".688"/></filter><linearGradient id="linearGradient3908" x1="319.868" x2="459.97" y1="631.939" y2="748.039" gradientUnits="userSpaceOnUse" xlink:href="#linearGradient3902"/><filter id="filter3910" color-interpolation-filters="sRGB"><feGaussianBlur id="feGaussianBlur3912" stdDeviation=".705"/></filter></defs><metadata id="metadata7"/><g id="layer2" transform="translate(-312.02244,-458.02391)"><path id="path3769" fill="url(#linearGradient3880)" fill-opacity="1" stroke="none" d="m 361.55203,582.98629 -0.3189,52.17736 167.40749,-24.24 0.12626,-53.00405 z" filter="url(#filter3882)"/><path id="path2999" fill="url(#linearGradient3838)" fill-opacity="1" stroke="none" d="M 359.18527,586.74607 C 337.68261,524.8314 388.4129,461.80383 472.49454,445.97005 c 84.08165,-15.83378 169.67464,21.52217 191.17731,83.43683 21.50266,61.91467 -29.22763,124.94224 -113.30928,140.77602 -15.04315,2.83284 -30.57341,4.00828 -46.0846,3.488 l 7.15059,-115.59442 z" filter="url(#filter3852)" transform="matrix(1.1001429,0,0,0.84590328,-34.816623,86.70147)"/><path id="rect3771" fill="url(#radialGradient3872)" fill-opacity="1" stroke="none" d="m 519.13672,708.32199 c 17.06452,0.44011 34.17132,-0.539 50.72094,-2.93531 74.56084,-10.79607 125.24125,-47.54488 129.72187,-88.81687 l 0.2525,0 0,-2.93532 0,-6.28093 0,-46.23907 c -2.33965,42.4528 -53.65289,80.70118 -129.97437,91.75219 -16.54962,2.39631 -33.65642,3.37542 -50.72094,2.93531 z" filter="url(#filter3848)"/><path id="path3813" fill="#339c34" fill-opacity="1" stroke="none" d="m 356.44031,610.7355 0.15782,0 c -0.0187,8.06118 1.73796,16.25808 5.42875,24.42938 l 0.15781,-0.0315 0,-24.39782 0,-24.46093 0,-3.66125 -0.15781,0.0315 c -3.77435,-8.35633 -5.52247,-16.73543 -5.42172,-24.97266 z" filter="url(#filter3886)"/><path id="path3824" fill="url(#linearGradient3896)" fill-opacity="1" stroke="none" d="M 505.20812,673.70007 C 435.78438,671.67487 376.40689,636.31921 359.18804,586.75405 L 511.42856,558.07648 z" filter="url(#filter3898)" transform="matrix(1.1001429,0,0,0.84590328,-81.320466,129.97784)"/><path id="path3826" fill="url(#linearGradient3908)" fill-opacity="1" stroke="none" d="m 314.09375,627.03125 0.5625,49.53125 c 18.75564,41.51221 83.44266,71.11634 159.0625,72.8125 l 0.0625,-49.9375 -0.15625,-0.0625 C 398.61336,697.66934 334.38303,668.50505 315.09375,627.5 l -1,-0.46875 z" filter="url(#filter3910)"/></g></svg>