<svg xmlns="http://www.w3.org/2000/svg" xmlns:cc="http://web.resource.org/cc/" xmlns:svg="http://www.w3.org/2000/svg" xmlns:xlink="http://www.w3.org/1999/xlink" id="svg1717" width="48" height="48"><defs id="defs1719"><linearGradient id="linearGradient2335"><stop id="stop2337" offset="0" stop-color="#fff" stop-opacity="1"/><stop id="stop2339" offset="1" stop-color="#fff" stop-opacity="0"/></linearGradient><linearGradient id="linearGradient2327"><stop id="stop2329" offset="0" stop-color="#fff" stop-opacity="1"/><stop id="stop2331" offset="1" stop-color="#fff" stop-opacity="0"/></linearGradient><linearGradient id="linearGradient3574"><stop id="stop3576" offset="0" stop-color="#3465a4" stop-opacity="1"/><stop id="stop3578" offset="1" stop-color="#3465a4" stop-opacity="0"/></linearGradient><linearGradient id="linearGradient3566"><stop id="stop3568" offset="0" stop-color="#d3d7cf" stop-opacity="1"/><stop id="stop3570" offset="1" stop-color="#a6ae9d" stop-opacity="1"/></linearGradient><linearGradient id="linearGradient3558"><stop id="stop3560" offset="0" stop-color="#000" stop-opacity="1"/><stop id="stop3562" offset="1" stop-color="#000" stop-opacity="0"/></linearGradient><radialGradient id="radialGradient3564" cx="22.571" cy="30.857" r="15.571" fx="22.571" fy="30.857" gradientTransform="matrix(1.000000,0.000000,0.000000,0.651376,3.763482e-15,10.75754)" gradientUnits="userSpaceOnUse" xlink:href="#linearGradient3558"/><linearGradient id="linearGradient3572" x1="19.544" x2="36.063" y1="22.641" y2="22.641" gradientTransform="matrix(1.184060,0.000000,0.000000,1.184060,-5.942398,-5.052390)" gradientUnits="userSpaceOnUse" xlink:href="#linearGradient3566"/><linearGradient id="linearGradient3580" x1="22.032" x2="20.712" y1="22.782" y2="4.75" gradientTransform="matrix(1.184060,0.000000,0.000000,1.184060,-5.942398,-5.052390)" gradientUnits="userSpaceOnUse" xlink:href="#linearGradient3574"/><linearGradient id="linearGradient2333" x1="17.526" x2="33.474" y1="20.397" y2="15.272" gradientTransform="matrix(1.184060,0.000000,0.000000,1.184060,-5.942398,-4.319792)" gradientUnits="userSpaceOnUse" xlink:href="#linearGradient2327"/><linearGradient id="linearGradient2341" x1="23.938" x2="23.938" y1="18.725" y2="16.848" gradientTransform="matrix(1.184060,0.000000,0.000000,1.184060,-5.942398,-4.319792)" gradientUnits="userSpaceOnUse" xlink:href="#linearGradient2335"/></defs><metadata id="metadata1722"/><g id="layer1"><path id="path2664" fill="url(#linearGradient3580)" fill-opacity="1" fill-rule="nonzero" stroke="none" stroke-dasharray="1 1" stroke-dashoffset="0" stroke-linecap="round" stroke-linejoin="round" stroke-miterlimit="4" stroke-opacity="1" stroke-width="1" marker-end="none" marker-mid="none" marker-start="none" d="M 3.5532403,33.393643 C -5.5596849,21.573975 6.9131063,9.4946328 20.952673,9.8329353 C 34.99224,10.171238 45.099036,15.118916 47.467155,27.805271 C 47.467155,27.805271 39.728479,27.086378 39.728479,27.086378 C 39.728479,19.305413 32.804297,15.24578 21.121824,15.24578 C 9.107311,15.24578 -2.6269476,18.34756 3.5532403,33.393643 z" color="#000" display="inline" opacity="1" overflow="visible" visibility="visible" style="marker:none"/><path id="path3556" fill="url(#radialGradient3564)" fill-opacity="1" fill-rule="nonzero" stroke="none" stroke-dasharray="none" stroke-dashoffset="0" stroke-linecap="round" stroke-linejoin="round" stroke-miterlimit="4" stroke-opacity="1" stroke-width="1" marker-end="none" marker-mid="none" marker-start="none" d="M 38.142857 30.857143 A 15.571428 10.142858 0 1 1 7,30.857143 A 15.571428 10.142858 0 1 1 38.142857 30.857143 z" color="#000" display="inline" opacity=".474" overflow="visible" transform="matrix(1.408115,0.000000,0.000000,1.408115,-10.54085,-16.32385)" visibility="visible" style="marker:none"/><path id="path3539" fill="#c00" fill-opacity="1" fill-rule="nonzero" stroke="none" stroke-dasharray="1 1" stroke-dashoffset="0" stroke-linecap="round" stroke-linejoin="round" stroke-miterlimit="4" stroke-opacity="1" stroke-width="1" marker-end="none" marker-mid="none" marker-start="none" d="M 39.390175,28.439589 C 39.390175,28.439589 38.882722,30.638557 38.290692,31.399738 L 46.832838,37.235461 C 47.847746,34.021585 47.509443,29.7928 47.509443,29.7928 L 39.390175,28.439589 z" color="#000" display="inline" opacity="1" overflow="visible" visibility="visible" style="marker:none"/><path id="path3541" fill="url(#linearGradient3572)" fill-opacity="1" fill-rule="nonzero" stroke="#888a85" stroke-dasharray="none" stroke-dashoffset="0" stroke-linecap="round" stroke-linejoin="round" stroke-miterlimit="4" stroke-opacity="1" stroke-width="1" marker-end="none" marker-mid="none" marker-start="none" d="M 20.883958,6.1221749 C 13.55429,6.1221749 7.6002852,10.219577 7.6002852,15.261641 C 7.6002852,16.855622 5.2321652,23.956925 5.2321652,26.732222 C 5.2321652,32.609278 12.155451,37.388761 20.698949,37.388762 C 29.242446,37.388762 36.165734,32.609276 36.165733,26.732222 C 36.165733,24.022217 34.13063,15.261641 34.13063,15.261641 L 33.982622,8.1572805 L 29.690405,8.5272993 C 27.34265,7.0620706 24.305772,6.1221749 20.883958,6.1221749 z" color="#000" display="inline" opacity="1" overflow="visible" visibility="visible" style="marker:none"/><path id="path3545" fill="#eeeeec" fill-opacity="1" fill-rule="nonzero" stroke="url(#linearGradient2341)" stroke-dasharray="none" stroke-dashoffset="0" stroke-linecap="round" stroke-linejoin="round" stroke-miterlimit="4" stroke-opacity="1" stroke-width="1" marker-end="none" marker-mid="none" marker-start="none" d="M 20.698949,6.6031993 C 14.047951,6.6031993 8.636338,10.051187 8.636338,14.299592 C 8.636338,18.547995 14.047951,21.995982 20.698949,21.995982 C 27.349947,21.995982 32.761559,18.547995 32.76156,14.299592 C 32.76156,13.51384 32.401598,12.793721 32.058525,12.079479 L 33.316588,8.8233143 L 29.653403,9.3043386 C 27.444179,7.6893945 24.31762,6.6031994 20.698949,6.6031993 z" color="#000" display="inline" opacity=".737" overflow="visible" visibility="visible" style="marker:none"/><path stroke-width="1" style="marker:none" id="path1452" fill="none" fill-opacity="1" fill-rule="nonzero" stroke="url(#linearGradient2333)" stroke-dasharray="none" stroke-dashoffset="0" stroke-linecap="butt" stroke-linejoin="miter" stroke-miterlimit="4" stroke-opacity="1" marker-end="none" marker-mid="none" marker-start="none" d="M 20.87031,7.2748571 C 14.081079,7.2748571 8.5660815,11.070145 8.5660815,15.740442 C 8.5660815,17.216895 6.3725701,23.794597 6.3725701,26.365264 C 6.3725701,31.808986 12.785381,36.236064 20.698941,36.236065 C 28.6125,36.236065 35.025314,31.808986 35.025312,26.365264 C 35.025312,23.855076 33.140264,15.740442 33.140264,15.740442 L 33.003169,9.1599082 L 29.02743,9.5026438 C 26.852782,8.1454517 24.039823,7.2748571 20.87031,7.2748571 z" color="#000" display="inline" opacity=".474" overflow="visible" visibility="visible"/></g></svg>