<svg xmlns="http://www.w3.org/2000/svg" xmlns:svg="http://www.w3.org/2000/svg" xmlns:xlink="http://www.w3.org/1999/xlink" id="svg3352" width="48" height="48" version="1.1"><metadata id="metadata50"/><defs id="defs3354"><linearGradient id="linearGradient14414"><stop id="stop14422" offset="0" stop-color="#fff" stop-opacity="1"/><stop id="stop14418" offset="1" stop-color="#fff" stop-opacity="0"/></linearGradient><linearGradient id="linearGradient6592-2-7"><stop id="stop6594-0-2" offset="0" stop-color="#fff" stop-opacity=".275"/><stop id="stop6596-2-5" offset="1" stop-color="#fff" stop-opacity="0"/></linearGradient><linearGradient id="linearGradient9936"><stop id="stop9938" offset="0" stop-color="#465868" stop-opacity="1"/><stop id="stop9940" offset="1" stop-color="#153451" stop-opacity="1"/></linearGradient><linearGradient id="linearGradient3342"><stop id="stop3344" offset="0" stop-color="#fff" stop-opacity="0"/><stop id="stop3346" offset="1" stop-color="#fff" stop-opacity="1"/></linearGradient><linearGradient id="linearGradient4510"><stop id="stop4512" offset="0" stop-color="#a5a6aa" stop-opacity="1"/><stop id="stop4514" offset=".221" stop-color="#e2e2e4" stop-opacity="1"/><stop id="stop4516" offset="1" stop-color="#595959" stop-opacity="1"/></linearGradient><linearGradient id="linearGradient4518"><stop id="stop4520" offset="0" stop-color="#7e7e7e" stop-opacity=".949"/><stop id="stop4522" offset="1" stop-color="#969696" stop-opacity="1"/></linearGradient><linearGradient id="linearGradient10691-1"><stop id="stop10693-3" offset="0" stop-color="#000" stop-opacity="1"/><stop id="stop10695-1" offset="1" stop-color="#000" stop-opacity="0"/></linearGradient><linearGradient id="linearGradient2432" x1="12.938" x2="15.25" y1="8.438" y2="19.813" gradientTransform="matrix(1.0952382,0,0,1.3333324,-2.2857144,2.4e-6)" gradientUnits="userSpaceOnUse" xlink:href="#linearGradient6592-2-7"/><radialGradient id="radialGradient2435" cx="12.244" cy="4.863" r="21" fx="12.244" fy="4.863" gradientTransform="matrix(1.4167634,1.999111e-2,-1.319114e-2,1.1175011,-5.3255699,6.599117)" gradientUnits="userSpaceOnUse" xlink:href="#linearGradient9936"/><linearGradient id="linearGradient2439" x1="15.574" x2="23.594" y1="46.971" y2="46.971" gradientTransform="matrix(1.1176471,0,0,1,-2.3519696,-3.4710029)" gradientUnits="userSpaceOnUse" spreadMethod="reflect" xlink:href="#linearGradient3342"/><linearGradient id="linearGradient2442" x1="318.421" x2="318.421" y1="93.292" y2="78.342" gradientTransform="matrix(1.4628351,0,0,0.7083672,-444.01094,-22.190508)" gradientUnits="userSpaceOnUse" xlink:href="#linearGradient4510"/><linearGradient id="linearGradient2444" x1="24.687" x2="24.739" y1="40.813" y2="34" gradientTransform="matrix(1.116455,0,0,1,-2.7949567,2.000003)" gradientUnits="userSpaceOnUse" xlink:href="#linearGradient4518"/><radialGradient id="radialGradient2447" cx="6.703" cy="73.616" r="7.228" fx="6.703" fy="73.616" gradientTransform="matrix(1.9368007,0,0,0.4150287,11.018182,13.447365)" gradientUnits="userSpaceOnUse" xlink:href="#linearGradient10691-1"/><radialGradient id="radialGradient2459" cx="24.5" cy="12.5" r="2.5" fx="24.5" fy="12.5" gradientTransform="matrix(1.4595168,0,0,1.4943648,-27.423204,6.0053494)" gradientUnits="userSpaceOnUse" xlink:href="#linearGradient14414"/><radialGradient id="radialGradient2462" cx="24.5" cy="12.5" r="2.5" fx="24.5" fy="12.5" gradientTransform="matrix(1.4595168,0,0,1.4943648,-16.888451,0.4286202)" gradientUnits="userSpaceOnUse" xlink:href="#linearGradient14414"/><radialGradient id="radialGradient2465" cx="24.5" cy="12.5" r="2.5" fx="24.5" fy="12.5" gradientTransform="matrix(1.4595168,0,0,1.4943648,-23.081244,-7.0027218)" gradientUnits="userSpaceOnUse" xlink:href="#linearGradient14414"/><radialGradient id="radialGradient2468" cx="24.5" cy="12.5" r="2.5" fx="24.5" fy="12.5" gradientTransform="matrix(1.4595168,0,0,1.4943648,-8.2185524,-4.5256078)" gradientUnits="userSpaceOnUse" xlink:href="#linearGradient14414"/></defs><path id="path2589" fill="url(#radialGradient2447)" fill-opacity="1" fill-rule="nonzero" stroke="none" stroke-width=".8" d="M 38,44 C 38,45.656855 31.731986,47 23.999999,47 C 16.268013,47 10,45.656855 10,44 C 10,42.343146 16.268013,41 23.999999,41 C 31.731986,41 38,42.343146 38,44 L 38,44 z" display="inline" opacity=".4" overflow="visible" visibility="visible" style="marker:none"/><path id="rect1789" fill="url(#linearGradient2442)" fill-opacity="1" stroke="url(#linearGradient2444)" stroke-dasharray="none" stroke-dashoffset=".5" stroke-linecap="round" stroke-linejoin="round" stroke-miterlimit="4" stroke-opacity="1" stroke-width="1" d="M 17.859462,36.249806 C 17.859462,36.249806 18.001234,40.507576 17.294118,41.5 C 16.587002,42.492424 15.17997,42.504 15.17997,42.504 C 14.277082,42.608262 14.269613,44.5 15.17997,44.5 L 32.81996,44.5 C 33.730317,44.5 33.723037,42.606932 32.81996,42.504 C 32.81996,42.504 31.412989,42.49242 30.705883,41.5 C 29.998777,40.507578 30.140468,36.249806 30.140468,36.249806 L 17.859462,36.249806 L 17.859462,36.249806 z" display="inline" enable-background="new"/><path id="path3340" fill="none" stroke="url(#linearGradient2439)" stroke-linecap="square" stroke-linejoin="miter" stroke-opacity="1" stroke-width="1" d="M 15.612977,43.5 L 32.387023,43.5"/><rect id="rect2722" width="47" height="33" x=".5" y="3.5" fill="#1a1a1a" fill-opacity="1" stroke="#000" stroke-dasharray="none" stroke-dashoffset=".5" stroke-linecap="round" stroke-linejoin="round" stroke-miterlimit="4" stroke-opacity="1" stroke-width="1" rx="1.044" ry="1"/><rect id="rect2716" width="42" height="28" x="3" y="6" fill="url(#radialGradient2435)" fill-opacity="1" fill-rule="evenodd" stroke="none" display="inline" enable-background="new"/><path id="rect6588" fill="url(#linearGradient2432)" fill-opacity="1" stroke="none" d="M 1,4 L 47,4 L 47,14.666672 L 1,24 L 1,4 z"/><path id="path18004" fill="url(#radialGradient2468)" fill-opacity="1" fill-rule="evenodd" stroke="none" stroke-dasharray="none" stroke-miterlimit="4" stroke-width=".807" d="M 27.54663,9.8190076 L 26.92033,13.534679 L 23.204659,14.059443 L 26.92033,14.773236 L 27.601368,18.488907 L 28.158887,14.773236 L 31.874558,14.196285 L 28.158887,13.534679 L 27.54663,9.8190076 z"/><path id="path18910" fill="url(#radialGradient2465)" fill-opacity="1" fill-rule="evenodd" stroke="none" stroke-dasharray="none" stroke-miterlimit="4" stroke-width=".807" d="M 12.683946,7.3418936 L 12.057646,11.057565 L 8.3419753,11.582329 L 12.057646,12.296122 L 12.738684,16.011793 L 13.296203,12.296122 L 17.011874,11.719171 L 13.296203,11.057565 L 12.683946,7.3418936 z"/><path id="path18914" fill="url(#radialGradient2462)" fill-opacity="1" fill-rule="evenodd" stroke="none" stroke-dasharray="none" stroke-miterlimit="4" stroke-width=".807" d="M 18.876731,14.773236 L 18.250431,18.488907 L 14.53476,19.013671 L 18.250431,19.727464 L 18.931469,23.443135 L 19.488988,19.727464 L 23.204659,19.150513 L 19.488988,18.488907 L 18.876731,14.773236 z"/><path id="path18918" fill="url(#radialGradient2459)" fill-opacity="1" fill-rule="evenodd" stroke="none" stroke-dasharray="none" stroke-miterlimit="4" stroke-width=".807" d="M 8.3419753,20.349965 L 7.7156754,24.065636 L 4.0000044,24.5904 L 7.7156754,25.304193 L 8.3967133,29.019864 L 8.9542324,25.304193 L 12.669903,24.727242 L 8.9542324,24.065636 L 8.3419753,20.349965 z"/><path id="path23408" fill="#eeeeec" fill-opacity="1" fill-rule="nonzero" stroke="#fff" stroke-dasharray="none" stroke-dashoffset="0" stroke-linecap="butt" stroke-linejoin="round" stroke-miterlimit="4" stroke-opacity=".29" stroke-width="1" d="M 37.828869,13.463514 C 38.311143,14.60311 38.564262,15.864541 38.564262,17.179185 C 38.564261,22.437759 34.30143,26.700592 29.042855,26.700592 C 27.507079,26.700592 26.070449,26.340673 24.785316,25.694264 C 26.232138,29.113052 29.6274,31.5 33.571329,31.5 C 38.829904,31.5 43.092736,27.237167 43.092736,21.978593 C 43.092736,18.255794 40.944096,15.030442 37.828869,13.463514 L 37.828869,13.463514 z" opacity=".9"/></svg>